<svg preserveAspectRatio="none" width="100%" height="100%" overflow="visible" style="display: block;" viewBox="0 0 26.9998 26.9998" fill="none" xmlns="http://www.w3.org/2000/svg">
<g id="close">
<path id="Union" d="M24.4395 0.439453C25.0252 -0.146333 25.9748 -0.146333 26.5605 0.439453C27.1462 1.02525 27.1463 1.9748 26.5605 2.56055L15.6211 13.5L26.5605 24.4395C27.1462 25.0252 27.1463 25.9748 26.5605 26.5605C25.9748 27.1463 25.0252 27.1462 24.4395 26.5605L13.5 15.6211L2.56055 26.5605C1.9748 27.1463 1.02525 27.1462 0.439453 26.5605C-0.146333 25.9748 -0.146333 25.0252 0.439453 24.4395L11.3789 13.5L0.439453 2.56055C-0.146333 1.97476 -0.146333 1.02524 0.439453 0.439453C1.02524 -0.146333 1.97476 -0.146333 2.56055 0.439453L13.5 11.3789L24.4395 0.439453Z" fill="var(--fill-0, #333333)"/>
</g>
</svg>
