<svg width="589" height="257" viewBox="0 0 589 257" fill="none" xmlns="http://www.w3.org/2000/svg">
<rect x="226.158" y="89" width="56" height="56" rx="5.25" fill="#E2E2E2"/>
<g style="mix-blend-mode:difference">
<rect x="230.158" y="92.9998" width="48" height="48" rx="3.05455" fill="white"/>
<path d="M264.475 113.554C264.551 113.546 264.618 113.562 264.694 113.574C264.857 113.829 264.746 135.201 264.768 137.091C265.889 137.073 266.55 136.967 266.515 138.293C266.518 138.788 266.558 139.627 265.878 139.667C264.399 139.755 262.886 139.709 261.398 139.709L253.051 139.708C252.597 139.713 251.471 139.846 251.144 139.535C250.901 139.305 250.88 138.833 250.877 138.519C250.874 138.107 250.905 137.57 251.227 137.271C251.606 136.919 254.74 137.092 255.421 137.103L255.424 118.634C256.458 117.958 258.289 117.009 259.427 116.375C261.018 115.488 262.872 114.371 264.475 113.554Z" fill="#252525"/>
<path d="M244.544 105.243C246.034 105.254 247.264 106.019 247.967 107.325C248.578 108.46 248.394 109.585 248.448 110.817C247.946 110.117 247.348 109.229 246.771 108.583C246.688 108.49 246.606 108.51 246.506 108.518C246.363 108.608 246.286 108.637 246.232 108.8C246.248 109.135 248.324 111.817 248.686 112.3C249.59 112.022 253.564 110.897 254.349 110.979C254.776 111.023 255.156 111.306 255.418 111.631C255.718 112.003 255.853 112.412 255.791 112.889C255.724 113.403 255.443 113.855 255.031 114.163C254.534 114.537 249.278 115.797 248.394 115.944C248.161 115.983 247.925 115.992 247.691 115.954C247.469 115.919 247.185 115.837 247.005 115.699C246.258 115.126 244.641 112.511 243.964 111.594C243.817 111.396 243.555 111.039 243.294 111.013C243.214 111.005 243.181 111.04 243.122 111.092C243.058 111.148 242.997 111.248 243 111.335C243.01 111.723 245.947 115.728 246.433 116.157C246.999 116.657 247.723 116.728 248.443 116.678L248.448 120.023C248.445 121.229 248.071 122.127 247.088 122.856L247.092 132.84L247.093 135.611C247.093 135.878 247.067 136.345 247.093 136.597C247.355 139.113 244.603 140.783 242.664 138.926C241.753 138.054 241.884 136.999 241.884 135.797L241.887 132.979L241.897 122.837C241.87 122.815 241.843 122.792 241.817 122.769C240.749 121.821 240.671 121.004 240.668 119.656C240.663 117.714 240.672 115.771 240.669 113.829L240.667 110.734C240.667 109.208 240.566 107.79 241.684 106.569C242.497 105.68 243.352 105.317 244.544 105.243Z" fill="#252525"/>
<path d="M244.928 94.7676C245.543 94.7023 246.283 94.7837 246.869 94.9799C248.014 95.3733 248.956 96.2058 249.487 97.2941C250.057 98.442 250.104 99.6689 249.701 100.874C248.419 101.28 247.697 102.083 247.718 103.468C246.987 103.909 246.629 104.04 245.782 104.171C244.495 104.236 243.532 104.022 242.492 103.199C241.505 102.421 240.872 101.279 240.736 100.03C240.582 98.7615 240.948 97.4849 241.749 96.4896C242.562 95.4675 243.642 94.9136 244.928 94.7676Z" fill="#252525"/>
<path d="M256.502 101.251C257.126 101.251 258.421 101.707 258.891 102.136C259.333 102.539 259.433 102.949 259.461 103.517C260.252 103.81 261.063 104.335 261.662 104.925C263.28 106.52 263.63 108.216 263.656 110.391L264.078 110.141C264.592 109.839 265.148 109.469 265.77 109.646C266.354 109.813 266.623 110.552 266.463 111.101C266.393 111.344 266.236 111.513 266.032 111.65C265.571 111.958 265.077 112.215 264.592 112.484L262.31 113.758L254.303 118.221C253.892 118.425 253.432 118.748 252.954 118.611C252.135 118.343 251.786 117.187 252.599 116.673C253.759 115.939 255.012 115.232 256.223 114.578C258.346 113.431 260.436 112.136 262.575 111.034C262.57 109.796 262.601 108.633 262.102 107.473C261.447 105.951 260.421 105.132 258.946 104.509C258.036 105.474 256.939 105.074 255.925 104.494C254.445 103.646 254.738 101.631 256.502 101.251Z" fill="#252525"/>
<path d="M249.82 103.505C250.123 103.518 251.638 104.98 251.664 105.293C251.628 105.484 251.522 105.564 251.386 105.704C251.065 105.622 249.552 104.178 249.541 103.862C249.563 103.701 249.696 103.613 249.82 103.505Z" fill="#252525"/>
<path d="M250.872 101.447C251.349 101.437 253.027 101.663 253.298 102.051C253.341 102.286 253.321 102.231 253.235 102.482C252.863 102.56 250.979 102.257 250.8 101.927C250.758 101.748 250.816 101.624 250.872 101.447Z" fill="#252525"/>
<path d="M253.203 98.6693C253.221 98.6713 253.24 98.6733 253.258 98.6754C254.469 99.207 251.834 99.963 251.619 100.044C251.195 100.017 251.104 99.5291 251.604 99.2951C252.139 99.0452 252.649 98.8693 253.203 98.6693Z" fill="#252525"/>
</g>
<rect x="196.158" y="83" width="68" height="68" rx="6.375" fill="#E2E2E2"/>
<g style="mix-blend-mode:difference">
<rect x="201.015" y="87.8571" width="58.2857" height="58.2857" rx="3.70909" fill="white"/>
<path d="M242.685 112.816C242.778 112.806 242.859 112.825 242.951 112.84C243.149 113.15 243.014 139.101 243.041 141.397C244.402 141.375 245.205 141.246 245.162 142.856C245.165 143.457 245.215 144.476 244.389 144.524C242.592 144.631 240.756 144.576 238.949 144.575L228.813 144.574C228.262 144.581 226.895 144.741 226.497 144.365C226.203 144.085 226.177 143.511 226.174 143.13C226.17 142.63 226.208 141.978 226.598 141.615C227.059 141.187 230.864 141.397 231.691 141.412L231.695 118.984C232.95 118.163 235.173 117.011 236.556 116.241C238.488 115.164 240.738 113.807 242.685 112.816Z" fill="#252525"/>
<path d="M218.483 102.724C220.291 102.737 221.786 103.666 222.639 105.252C223.381 106.631 223.157 107.997 223.222 109.493C222.613 108.643 221.887 107.564 221.187 106.781C221.086 106.668 220.986 106.692 220.864 106.701C220.691 106.81 220.597 106.846 220.532 107.043C220.551 107.45 223.072 110.707 223.512 111.294C224.61 110.955 229.435 109.589 230.389 109.689C230.907 109.743 231.368 110.086 231.686 110.481C232.05 110.933 232.214 111.429 232.139 112.009C232.058 112.633 231.717 113.181 231.217 113.556C230.613 114.009 224.231 115.54 223.158 115.718C222.874 115.765 222.587 115.776 222.303 115.731C222.034 115.687 221.689 115.589 221.471 115.421C220.563 114.725 218.6 111.55 217.778 110.437C217.6 110.196 217.281 109.763 216.964 109.731C216.867 109.721 216.828 109.764 216.756 109.827C216.678 109.895 216.604 110.016 216.607 110.122C216.619 110.593 220.186 115.456 220.776 115.978C221.464 116.584 222.343 116.671 223.217 116.61L223.223 120.672C223.22 122.136 222.765 123.226 221.571 124.112L221.577 136.235L221.577 139.6C221.578 139.924 221.546 140.491 221.577 140.797C221.896 143.852 218.554 145.88 216.199 143.625C215.094 142.566 215.252 141.285 215.252 139.826L215.256 136.404L215.268 124.089C215.235 124.062 215.203 124.034 215.171 124.006C213.874 122.855 213.78 121.862 213.776 120.226C213.77 117.868 213.78 115.509 213.777 113.151L213.774 109.392C213.774 107.539 213.652 105.817 215.009 104.335C215.997 103.255 217.034 102.815 218.483 102.724Z" fill="#252525"/>
<path d="M218.949 90.0036C219.696 89.9244 220.593 90.0232 221.305 90.2615C222.696 90.7392 223.84 91.7501 224.485 93.0716C225.177 94.4655 225.234 95.9553 224.744 97.4185C223.187 97.9115 222.31 98.8872 222.336 100.569C221.449 101.104 221.014 101.263 219.986 101.422C218.423 101.501 217.253 101.241 215.991 100.242C214.792 99.2976 214.023 97.9108 213.858 96.3937C213.671 94.8534 214.115 93.3032 215.088 92.0946C216.076 90.8535 217.387 90.1809 218.949 90.0036Z" fill="#252525"/>
<path d="M233.003 97.877C233.761 97.8772 235.334 98.4301 235.905 98.9508C236.441 99.4401 236.562 99.9379 236.596 100.628C237.557 100.984 238.542 101.622 239.268 102.338C241.233 104.274 241.658 106.335 241.69 108.975L242.202 108.672C242.827 108.305 243.501 107.856 244.257 108.071C244.966 108.273 245.292 109.171 245.099 109.837C245.013 110.132 244.823 110.338 244.575 110.504C244.015 110.879 243.416 111.191 242.827 111.517L240.056 113.063L230.332 118.483C229.834 118.731 229.276 119.123 228.695 118.957C227.7 118.631 227.277 117.227 228.263 116.603C229.672 115.712 231.194 114.853 232.665 114.059C235.242 112.667 237.78 111.095 240.377 109.756C240.372 108.252 240.41 106.84 239.804 105.432C239.008 103.584 237.762 102.59 235.971 101.833C234.866 103.004 233.533 102.519 232.302 101.814C230.506 100.785 230.861 98.3376 233.003 97.877Z" fill="#252525"/>
<path d="M224.888 100.613C225.257 100.63 227.097 102.405 227.128 102.785C227.084 103.017 226.956 103.115 226.79 103.284C226.4 103.184 224.563 101.431 224.55 101.047C224.577 100.852 224.739 100.745 224.888 100.613Z" fill="#252525"/>
<path d="M226.167 98.1147C226.747 98.1026 228.784 98.3767 229.114 98.8482C229.165 99.1331 229.142 99.0663 229.037 99.371C228.585 99.4659 226.297 99.0986 226.08 98.6977C226.029 98.4795 226.099 98.3294 226.167 98.1147Z" fill="#252525"/>
<path d="M228.997 94.7419C229.019 94.7444 229.041 94.7468 229.063 94.7494C230.534 95.3949 227.334 96.3128 227.074 96.4107C226.559 96.3789 226.447 95.7859 227.056 95.5018C227.705 95.1984 228.325 94.9848 228.997 94.7419Z" fill="#252525"/>
</g>
<rect x="142.158" y="75" width="84" height="84" rx="7.875" fill="#E2E2E2"/>
<g style="mix-blend-mode:difference">
<rect x="148.158" y="81" width="72" height="72" rx="4.58182" fill="white"/>
<path d="M195.486 101.416L195.66 101.415C195.952 101.628 196.279 102.759 196.41 103.154C194.964 103.633 193.244 104.358 191.763 104.662C194.106 106.429 192.894 108.993 190.676 110.082C188.559 111.122 183.085 116.202 180.805 115.147C179.73 114.649 176.289 112.172 175.225 111.329C175.081 114.316 174.316 119.163 174.678 122.042C174.833 123.268 178.17 128.398 178.896 129.824C179.193 130.408 180.1 131.797 180.167 132.495C180.366 134.537 180.217 137.394 180.148 139.447C180.095 141.008 180.141 145.105 179.871 146.44C179.72 147.216 179.259 147.898 178.595 148.328C176.351 149.808 173.865 148.071 173.887 145.394C173.915 141.881 174.398 137.395 174.104 134.027C174.054 133.448 169.706 127.131 169.097 126.155C169.019 127.684 168.959 134.484 168.629 135.602C167.148 139.428 164.516 142.991 162.572 146.613C161.499 148.612 159.769 149.518 157.711 148.252C155.003 145.917 157.535 143.349 158.778 141.019C159.463 139.396 162.274 135.828 162.568 134.343C163.013 132.095 162.921 126.332 162.764 123.994C162.46 119.441 162.921 115.664 163.45 111.259C162.917 111.941 161.366 113.349 161.122 114.012C160.353 116.109 161.419 122.089 160.199 123.775C159.839 124.273 159.293 124.603 158.685 124.692C158.093 124.776 157.396 124.612 156.919 124.247C156.364 123.823 156.107 123.153 156.024 122.479C155.885 121.361 156.034 113.766 156.281 112.778C156.419 112.224 156.774 111.743 157.12 111.297C158.373 109.682 163.219 104.332 164.735 103.429C165.165 103.173 165.718 103.078 166.212 103.02C167.522 102.866 168.926 103.052 170.239 103.134C171.458 103.21 172.842 103.178 174.01 103.567C175.821 104.169 180.097 108.523 181.97 109.999C182.789 109.7 186.095 107.653 187.046 107.083C187.124 106.619 187.24 106.347 187.406 105.913C186.268 106.3 184.553 106.95 183.355 107.149C183.17 107.179 183.105 107.067 182.977 106.944C182.943 106.825 182.878 106.695 182.95 106.604C183.582 105.806 185.968 105.127 186.818 104.786C189.7 103.643 192.589 102.52 195.486 101.416Z" fill="#252525"/>
<path d="M192.086 89.7161C198.275 89.4699 204.716 89.8508 210.925 89.701C211.538 89.6863 212.708 89.7614 212.682 90.6067C212.65 91.6396 212.458 92.7072 212.305 93.7369L211.26 100.55L209.164 114.132C208.83 116.297 208.55 118.487 208.158 120.642C208.1 120.965 207.957 121.886 207.738 122.113C207.155 122.714 201.464 122.451 200.262 122.453C202.227 130.578 204.538 138.667 206.582 146.774C207.062 148.679 205.017 149.018 204.636 147.694C204.218 146.243 203.809 144.56 203.434 143.083L201.385 135.224L199.484 127.895C199.139 126.587 198.578 124.711 198.364 123.425C198.156 124.493 197.673 126.106 197.381 127.216L195.447 134.578L193.543 141.87C193.077 143.697 192.526 146.302 191.81 148.058C191.692 148.348 191.216 148.479 190.92 148.558C190.057 148.241 189.826 147.933 190.041 147.006C190.648 144.387 191.37 141.791 192.048 139.189L196.451 122.449L190.953 122.458C189.906 122.462 188.828 122.516 187.784 122.445C187.416 122.42 186.718 122.337 186.477 122.007C186.006 121.359 187.214 115.199 187.447 114.101C188.233 113.566 189.114 112.997 189.832 112.385C189.351 114.966 189.006 117.713 188.548 120.333C194.311 120.413 200.304 120.347 206.076 120.333L210.449 91.8099L193.044 91.8103C192.711 94.7767 191.974 98.3359 191.536 101.364L189.197 102.386C189.401 101.582 189.592 100.135 189.726 99.2875L190.637 93.5196C190.793 92.522 190.951 91.1428 191.307 90.1957C191.41 89.9225 191.816 89.8036 192.086 89.7161Z" fill="#252525"/>
<path d="M170.511 88.2787C174.192 87.8477 177.528 90.4778 177.968 94.1585C178.408 97.8391 175.786 101.181 172.107 101.63C168.415 102.081 165.058 99.4478 164.617 95.7545C164.175 92.0611 166.816 88.7111 170.511 88.2787Z" fill="#252525"/>
<path d="M205.729 103.897C205.765 103.896 205.802 103.896 205.839 103.896C206.393 103.91 207.002 104.52 206.873 105.022C206.694 105.717 205.524 105.933 204.999 106.604C203.843 108.081 203.746 110.245 201.674 110.905C200.888 111.184 199.292 111.04 198.738 111.62C197.963 112.431 197.621 113.783 196.579 114.448C195.717 114.997 194.386 114.832 193.62 115.409C192.805 116.023 192.928 117.017 191.989 117.669C190.641 117.579 190.545 116.58 191.09 115.546C191.853 114.097 193.019 113.229 194.645 112.958C194.953 112.907 195.402 112.822 195.64 112.615C196.668 111.707 196.73 110.376 198.023 109.666C199.121 109.062 199.987 109.32 201.045 109.03C201.74 108.84 202.364 107.323 202.649 106.662C203.318 105.104 204.188 104.469 205.729 103.897Z" fill="#252525"/>
<path d="M201.678 99.3345C201.788 99.3355 201.732 99.3237 201.838 99.4227C201.682 100.029 199.997 102.047 199.32 102.381C198.471 102.8 198.02 102.775 197.135 102.545C196.826 101.952 196.749 101.665 196.561 101.023C197.847 99.4132 199.777 99.5398 201.678 99.3345Z" fill="#252525"/>
</g>
<path d="M72.4537 41.2917L67.2683 72.5261H59.7342L63.7606 48.3377H63.5775L55.8757 52.6081L56.9433 46.0806L65.4534 41.2917H72.4537Z" fill="white"/>
<circle cx="64.1053" cy="57.8948" r="32.2105" stroke="#D9D9D9" stroke-width="1.78947"/>
<path d="M345.984 72.5259L346.883 67.0965L359.938 57.1222C360.925 56.3494 361.769 55.6377 362.47 54.987C363.182 54.3363 363.751 53.6856 364.178 53.0349C364.605 52.3841 364.88 51.6724 365.002 50.8997C365.144 50.0354 365.078 49.2932 364.804 48.673C364.529 48.0528 364.092 47.58 363.492 47.2546C362.892 46.9191 362.17 46.7514 361.326 46.7514C360.462 46.7514 359.669 46.9293 358.947 47.2852C358.225 47.6308 357.625 48.1392 357.147 48.8103C356.68 49.4712 356.37 50.2693 356.217 51.2047H349.049C349.405 49.0797 350.193 47.2445 351.413 45.699C352.633 44.1536 354.179 42.964 356.049 42.1302C357.92 41.2863 360.01 40.8644 362.318 40.8644C364.676 40.8644 366.664 41.2609 368.281 42.054C369.908 42.8471 371.082 43.9553 371.804 45.3788C372.536 46.792 372.744 48.4341 372.429 50.3049C372.226 51.4945 371.784 52.6739 371.102 53.8432C370.431 55.0023 369.359 56.2935 367.884 57.717C366.41 59.1302 364.382 60.8231 361.799 62.7956L357.498 66.2424L357.452 66.4407H370.126L369.104 72.5259H345.984Z" fill="white"/>
<circle cx="359.263" cy="57.8948" r="32.2105" stroke="#D9D9D9" stroke-width="1.78947"/>
<rect x="379.908" y="63.75" width="141.5" height="111.5" rx="11.25" fill="#292929" stroke="white" stroke-width="1.5" stroke-dasharray="4 4"/>
<g filter="url(#filter0_d_941_1238)">
<rect x="70.1582" y="67" width="96" height="96" rx="9" fill="#D5FC74" shape-rendering="crispEdges"/>
<rect x="70.7207" y="67.5625" width="94.875" height="94.875" rx="8.4375" stroke="black" stroke-width="1.125" shape-rendering="crispEdges"/>
<g style="mix-blend-mode:darken">
<g clip-path="url(#clip0_941_1238)">
<rect x="76.9082" y="73.75" width="82.5" height="82.5" rx="5.25" fill="white"/>
<path d="M142.52 140.434C145.191 140.381 147.996 140.485 150.684 140.516L165.403 140.702C171.308 140.798 177.916 140.703 183.753 140.985V150.219C182.679 150.513 179.661 150.876 178.411 151.036C173.868 151.618 168.896 152.209 164.327 152.419C161.907 150.854 157.164 148.389 154.561 146.955C151.048 145.02 146.067 142.051 142.52 140.434Z" fill="#252525"/>
<path d="M183.754 134.125V139.482L134.127 138.864C134.207 138.372 134.239 137.709 134.278 137.201C138.874 136.776 144.066 136.543 148.706 136.244L183.754 134.125Z" fill="#252525"/>
<path d="M183.755 156.123C168.674 155.48 120.585 155.443 108.998 147.556C108.291 147.075 107.604 146.425 107.454 145.543C107.35 144.932 107.56 144.35 107.922 143.862C110.431 140.485 118.927 139.099 123.005 138.521C122.989 138.989 122.912 139.527 122.857 139.998C119.547 140.759 112.768 141.684 110.529 144.172C110.27 144.461 110.067 144.813 110.109 145.216C110.172 145.817 110.732 146.285 111.187 146.616C118.654 152.027 155.21 154.199 165.422 153.914C171.226 153.752 177.98 152.82 183.755 151.948V156.123Z" fill="#252525"/>
<path d="M135.083 129.137C136.427 128.927 138.929 128.82 140.359 128.719L149.906 128.048L157.7 127.528C159.185 127.433 161.529 127.228 162.935 127.353C165.594 127.589 168.437 128.04 171.093 128.415L183.755 130.179V131.9C176.709 131.151 169.473 129.62 162.403 128.925C160.41 128.729 157.176 129.2 155.045 129.315C148.363 129.73 141.685 130.196 135.01 130.711L135.083 129.137Z" fill="#252525"/>
<path d="M63.6016 134.33C74.4502 133.564 85.6459 132.611 96.4756 132.038C95.9333 132.415 94.5101 133.506 93.9498 133.653C92.583 134.01 90.855 134.047 89.4374 134.138C87.4836 134.262 85.5304 134.396 83.5781 134.54L70.6957 135.468C68.5815 135.623 65.668 135.935 63.6016 135.975V134.33Z" fill="#252525"/>
<path d="M117.89 92.4732C117.968 92.467 118.045 92.4616 118.123 92.4572C119.745 92.366 121.369 92.9904 122.857 93.5341C127.068 95.0731 127.756 95.6598 130.276 99.0594L133.436 103.35C135.364 106.006 134.993 105.692 137.995 107.038C140.961 108.367 144.437 109.402 147.114 111.176C148.199 111.895 148.452 113.836 147.462 114.872C146.97 115.388 146.29 115.683 145.577 115.69C144.277 115.713 143.019 114.906 141.82 114.458C139.784 113.698 137.771 113.003 135.728 112.241C134.468 111.772 132.826 111.321 131.712 110.53C129.615 108.663 127.965 105.994 125.968 104.019C124.202 107.246 122.009 111.74 120.497 115.084C121.003 115.376 121.525 115.702 122.013 116.029C125.317 118.243 128.924 120.278 132.049 122.725C134.282 124.473 133.751 126.94 133.485 129.366C133.302 131.04 133.118 132.784 132.934 134.492L132.226 141.011C132.028 142.825 131.965 145.73 130.69 147.089C129.984 147.831 129.007 148.257 127.983 148.271C126.955 148.297 125.96 147.902 125.23 147.178C123.391 145.382 124.112 142.97 124.386 140.657L125.318 132.772C125.488 131.343 125.807 129.211 125.799 127.85C124.698 126.884 122.69 125.97 121.359 125.283L115.173 122.104C114.074 123.881 112.613 127.024 111.65 128.964C110.597 130.891 109.839 133.228 108.408 134.905C107.419 136.064 93.6232 146.14 92.2427 146.819C91.331 147.267 90.3901 147.387 89.4208 147.043C88.447 146.698 87.5376 145.853 87.1154 144.911C86.5727 143.7 86.7087 142.209 87.4225 141.095C88.44 139.506 96.8232 133.752 99.0278 132.138C99.9772 131.443 101.232 130.729 101.967 129.812C102.799 128.773 106.12 119.474 106.864 117.539C106.251 113.768 107.801 111.62 109.355 108.319C110.526 105.803 111.716 103.297 112.926 100.8C113.832 100.745 115.65 100.589 116.129 99.7418L116.03 99.5063C114.865 98.7556 108.259 100.514 106.235 100.472C104.183 100.429 100.311 105.021 98.7725 105.689C94.6132 107.496 95.8724 107.452 93.6804 110.575C90.9698 114.436 87.3204 110.292 90.8043 106.678C92.222 105.292 101.415 95.8791 102.461 95.5959C106.828 94.414 113.512 92.9581 117.89 92.4732Z" fill="#252525"/>
<path d="M133.906 140.289C135.291 140.287 138.251 140.18 139.468 140.504C140.598 140.805 142.818 142.302 143.957 142.915C149.712 146.017 155.371 149.414 161.122 152.516C159.175 152.457 157.227 152.408 155.279 152.369C149.568 152.195 143.866 151.812 138.184 151.221C135.547 150.944 130.206 150.118 127.941 150.115C133.756 148.761 133.491 145.341 133.906 140.289Z" fill="#252525"/>
<path d="M126.423 79.7296C130.128 79.1863 133.568 81.7622 134.089 85.4705C134.61 89.1788 132.013 92.6026 128.302 93.1012C124.622 93.5955 121.233 91.0257 120.717 87.349C120.2 83.6721 122.75 80.2683 126.423 79.7296Z" fill="#252525"/>
<path d="M102.98 111.192L103.252 111.232C103.318 111.331 103.4 111.468 103.434 111.583C104.98 116.708 100.38 121.721 95.1168 120.427C94.4567 120.265 94.0243 120.065 93.4076 119.765C92.5787 119.263 92.1359 118.858 91.4434 118.2C95.6363 115.264 97.9287 113.105 102.98 111.192Z" fill="#252525"/>
<path d="M98.976 107.215C100.828 107.872 101.512 108.516 102.759 109.956C99.1639 111.043 95.0074 114.03 91.9683 116.239L90.6213 117.244C89.8706 115.508 89.6683 114.967 89.6211 113.061C93.8669 114.198 94.764 111.361 96.4911 108.441C97.3984 107.969 98.0087 107.819 98.976 107.215Z" fill="#252525"/>
<path d="M123.631 129.911C123.754 129.896 123.721 129.914 123.869 129.983C123.966 130.362 123.831 131.051 123.776 131.466C120.444 131.866 115.571 132.117 112.15 132.344L111.999 132.317L111.906 132.166C112.113 131.586 112.333 131.247 112.644 130.725C116.065 130.38 120.179 130.128 123.631 129.911Z" fill="#252525"/>
</g>
</g>
</g>
<path d="M80.1782 218.72H86.2582V225.06H73.7382V218.72H78.6182V213.02L80.1782 213.08V215H87.9782V216.46H80.1782V218.72ZM75.2382 223.6H84.7582V220.14H75.2382V223.6ZM70.9582 230.34C71.3849 229.847 71.8649 229.127 72.3982 228.18C72.9449 227.233 73.3582 226.42 73.6382 225.74L74.9782 226.24C74.7382 226.88 74.3449 227.7 73.7982 228.7C73.2515 229.687 72.7715 230.5 72.3582 231.14L70.9582 230.34ZM85.9382 225.76C86.3515 226.267 86.8515 226.967 87.4382 227.86C88.0382 228.753 88.4849 229.487 88.7782 230.06L87.5582 231.08C87.2782 230.427 86.8449 229.647 86.2582 228.74C85.6715 227.82 85.1515 227.073 84.6982 226.5L85.9382 225.76ZM82.0782 226.06C82.3182 226.58 82.5982 227.28 82.9182 228.16C83.2382 229.027 83.4649 229.733 83.5982 230.28L82.1782 230.8C82.0715 230.227 81.8649 229.507 81.5582 228.64C81.2649 227.76 80.9915 227.04 80.7382 226.48L82.0782 226.06ZM78.0382 226.24C78.2115 226.84 78.3915 227.587 78.5782 228.48C78.7782 229.36 78.9049 230.053 78.9582 230.56L77.4782 230.98C77.4249 230.367 77.3049 229.607 77.1182 228.7C76.9449 227.793 76.7782 227.067 76.6182 226.52L78.0382 226.24ZM108.366 222.14H100.406V228.4H104.966V223.7L106.486 223.76V230.9H104.966V229.82H92.8257V223.72L94.3257 223.78V228.4H98.9257V222.14H90.9457V220.7H98.9257V217.32H92.2457V215.86H98.9257V212.8L100.406 212.84V215.86H107.066V217.32H100.406V220.7H108.366V222.14ZM118.893 221.54H115.773V220.22H120.833V217.26H118.273C117.98 218.127 117.66 218.94 117.313 219.7L115.873 219.2C116.313 218.4 116.687 217.533 116.993 216.6C117.313 215.653 117.54 214.707 117.673 213.76L119.093 214.02C118.987 214.633 118.847 215.267 118.673 215.92H120.833V212.94L122.253 213.02V215.92H126.533V217.26H122.253V220.22H127.393V221.54H123.533V225.24C123.533 225.64 123.587 225.907 123.693 226.04C123.8 226.173 124.033 226.253 124.393 226.28H125.273C125.567 226.253 125.773 226.22 125.893 226.18C126.027 226.127 126.12 226.04 126.173 225.92C126.227 225.787 126.267 225.567 126.293 225.26C126.347 224.62 126.373 224.127 126.373 223.78L127.693 224.2C127.667 224.76 127.627 225.28 127.573 225.76C127.507 226.28 127.407 226.66 127.273 226.9C127.153 227.127 126.96 227.287 126.693 227.38C126.44 227.46 126.027 227.527 125.453 227.58H123.793C123.34 227.54 123 227.46 122.773 227.34C122.547 227.22 122.387 227.027 122.293 226.76C122.2 226.493 122.153 226.093 122.153 225.56V221.54H120.313V221.92C120.313 222.893 120.227 223.693 120.053 224.32C119.88 224.947 119.547 225.547 119.053 226.12C118.573 226.68 117.84 227.3 116.853 227.98L115.893 226.84C116.787 226.28 117.433 225.793 117.833 225.38C118.247 224.967 118.527 224.507 118.673 224C118.82 223.493 118.893 222.793 118.893 221.9V221.54ZM113.613 217.88C113.293 217.293 112.907 216.68 112.453 216.04C112 215.4 111.567 214.853 111.153 214.4L112.253 213.58C113.08 214.46 113.92 215.547 114.773 216.84L113.613 217.88ZM122.833 229.02C124.78 229.02 126.647 228.967 128.433 228.86L128.093 230.26C125.853 230.327 124.16 230.36 123.013 230.36L121.713 230.34C120.14 230.3 118.92 230.227 118.053 230.12C117.2 230.013 116.42 229.787 115.713 229.44C115.02 229.093 114.313 228.56 113.593 227.84C113.247 228.253 112.887 228.667 112.513 229.08C112.14 229.493 111.707 229.953 111.213 230.46L110.153 229.34L112.973 226.5V220.94H110.813V219.52H114.413V226.8C115.053 227.413 115.673 227.873 116.273 228.18C116.887 228.473 117.567 228.68 118.313 228.8C119.06 228.907 120.067 228.973 121.333 229L122.833 229.02ZM135.981 221.4L136.141 222.06L134.381 222.8V228.52C134.381 228.987 134.327 229.347 134.221 229.6C134.127 229.853 133.954 230.04 133.701 230.16C133.447 230.28 133.067 230.373 132.561 230.44L131.241 230.6L130.741 229.18L132.341 229C132.607 228.987 132.781 228.907 132.861 228.76C132.941 228.6 132.981 228.333 132.981 227.96V223.38C131.861 223.82 130.961 224.167 130.281 224.42L129.861 223C131.087 222.547 132.127 222.14 132.981 221.78V217.92H130.781V216.52H132.981V213.06L134.381 213.14V216.52H136.561V217.92H134.381V221.2C134.501 221.147 134.627 221.093 134.761 221.04C134.894 220.987 135.041 220.927 135.201 220.86C135.334 220.793 135.534 220.707 135.801 220.6L135.981 221.4ZM148.221 220.62L147.681 221.96C146.374 221.627 145.261 221.293 144.341 220.96C143.421 220.627 142.614 220.253 141.921 219.84C140.641 220.6 138.927 221.327 136.781 222.02L136.201 220.84C137.907 220.333 139.401 219.72 140.681 219C140.094 218.533 139.541 218 139.021 217.4C138.501 216.787 137.954 216.053 137.381 215.2H136.921V213.92H146.361V215.26C145.921 216.047 145.447 216.74 144.941 217.34C144.434 217.94 143.841 218.493 143.161 219C144.374 219.587 146.061 220.127 148.221 220.62ZM138.901 215.2C139.381 215.88 139.854 216.467 140.321 216.96C140.801 217.453 141.314 217.887 141.861 218.26C143.141 217.353 144.134 216.333 144.841 215.2H138.901ZM146.481 224.36H142.481V226.52H147.541V227.82H142.481V230.94H141.061V227.82H136.161V226.52H141.061V224.36H137.241V223.08H141.061V221.08L142.481 221.16V223.08H146.481V224.36ZM157.648 213.8H158.928C158.608 214.653 158.342 215.54 158.128 216.46C157.928 217.367 157.828 218.187 157.828 218.92H156.128C156.128 218.24 156.275 217.427 156.568 216.48C156.875 215.52 157.235 214.627 157.648 213.8ZM161.608 213.8H162.888C162.568 214.653 162.302 215.54 162.088 216.46C161.888 217.367 161.788 218.187 161.788 218.92H160.108C160.108 218.24 160.255 217.42 160.548 216.46C160.842 215.5 161.195 214.613 161.608 213.8ZM176.332 217.72C177.078 219.547 178.038 221.193 179.212 222.66C180.385 224.113 181.878 225.54 183.692 226.94L182.552 228.32C180.725 226.747 179.218 225.18 178.032 223.62C176.858 222.06 175.905 220.367 175.172 218.54V226.02H179.252V227.5H175.172V231.2H173.592V227.5H169.572V226.02H173.592V218.46C172.832 220.287 171.878 221.967 170.732 223.5C169.598 225.02 168.105 226.633 166.252 228.34L165.032 227.08C166.925 225.507 168.445 224 169.592 222.56C170.738 221.107 171.692 219.493 172.452 217.72H166.492V216.22H173.592V213L175.172 213.08V216.22H182.312V217.72H176.332ZM192.439 219.08C192.093 218.547 191.633 217.933 191.059 217.24C190.486 216.547 189.919 215.92 189.359 215.36C188.293 217.44 186.999 219.233 185.479 220.74L184.579 219.8C185.499 218.92 186.373 217.833 187.199 216.54C188.039 215.247 188.666 214.007 189.079 212.82L190.279 213.28C190.213 213.467 190.099 213.747 189.939 214.12C190.446 214.613 191.033 215.24 191.699 216C192.379 216.76 192.939 217.433 193.379 218.02L192.439 219.08ZM192.859 213.92H202.939V215.26H198.559L198.479 215.68L198.119 217.56H201.799V226.32H200.359V218.84H195.319V226.34H193.899V217.56H196.559C196.693 216.987 196.846 216.22 197.019 215.26H192.859V213.92ZM190.039 221.64C189.773 221.12 189.419 220.54 188.979 219.9C188.553 219.26 188.219 218.827 187.979 218.6L189.039 217.86C189.319 218.167 189.659 218.593 190.059 219.14C190.459 219.687 190.793 220.193 191.059 220.66L190.039 221.64ZM198.359 220V223.24C198.359 224.587 198.219 225.68 197.939 226.52C197.673 227.347 197.133 228.113 196.319 228.82C195.519 229.527 194.299 230.28 192.659 231.08L191.859 229.96C193.406 229.213 194.539 228.533 195.259 227.92C195.979 227.293 196.446 226.62 196.659 225.9C196.873 225.18 196.979 224.187 196.979 222.92V219.92L198.359 220ZM192.639 223.4C192.053 224.64 191.213 226.133 190.119 227.88C190.613 228.32 191.086 228.753 191.539 229.18L190.659 230.42C189.886 229.593 189.053 228.773 188.159 227.96C187.266 227.133 186.526 226.52 185.939 226.12L186.799 225.08C187.239 225.427 187.999 226.053 189.079 226.96C189.453 226.4 189.826 225.773 190.199 225.08C190.586 224.387 190.886 223.78 191.099 223.26H185.959V221.96H192.639V223.4ZM198.739 226.3C200.393 227.487 201.793 228.633 202.939 229.74L202.039 230.96C201.573 230.427 201.059 229.913 200.499 229.42C199.953 228.94 199.286 228.387 198.499 227.76C198.406 227.68 198.313 227.607 198.219 227.54C198.139 227.473 198.059 227.407 197.979 227.34L198.739 226.3ZM216.427 223.48C216.893 224.84 217.647 226.013 218.687 227C219.727 227.973 221.113 228.827 222.847 229.56L221.887 231C220.26 230.187 218.933 229.307 217.907 228.36C216.88 227.413 216.093 226.307 215.547 225.04C215.12 226.16 214.433 227.193 213.487 228.14C212.553 229.087 211.273 230.06 209.647 231.06L208.707 229.76C210.48 228.813 211.813 227.853 212.707 226.88C213.613 225.907 214.207 224.773 214.487 223.48H210.347V222.04H214.687L214.707 221.6V217.56H211.187V216.12H214.707V212.94L216.187 213V216.12H220.647V222.04H222.487V223.48H216.427ZM211.407 225.92L211.527 226.66C210.66 227.02 209.54 227.44 208.167 227.92C206.793 228.387 205.727 228.707 204.967 228.88L204.607 227.38C205.153 227.26 206.12 226.987 207.507 226.56V219.78H205.187V218.34H207.507V213.1L208.927 213.14V218.34H211.187V219.78H208.927V226.08C210.1 225.667 210.893 225.38 211.307 225.22L211.407 225.92ZM216.187 221.52L216.167 222.04H219.187V217.56H216.187V221.52ZM226.454 213.8H228.154C228.154 214.467 228.001 215.287 227.694 216.26C227.401 217.22 227.048 218.107 226.634 218.92H225.354C225.674 218.067 225.934 217.18 226.134 216.26C226.348 215.34 226.454 214.52 226.454 213.8ZM230.434 213.8H232.114C232.114 214.467 231.961 215.287 231.654 216.26C231.361 217.22 231.008 218.107 230.594 218.92H229.334C229.654 218.067 229.914 217.18 230.114 216.26C230.328 215.34 230.434 214.52 230.434 213.8ZM241.498 231.08V213.9H256.758V231.08H255.338V229.92H242.898V231.08H241.498ZM242.898 215.22V228.68H255.338V215.22H242.898ZM255.098 222.24L254.538 223.52C252.271 222.893 250.458 222.213 249.098 221.48C247.618 222.227 245.798 222.927 243.638 223.58L243.098 222.46C244.951 221.953 246.571 221.393 247.958 220.78C247.238 220.287 246.531 219.68 245.838 218.96C245.278 219.56 244.691 220.1 244.078 220.58L243.358 219.7C244.051 219.127 244.731 218.44 245.398 217.64C246.065 216.84 246.598 216.087 246.998 215.38L248.138 215.84C247.898 216.253 247.638 216.673 247.358 217.1H253.578V218.16C252.511 219.253 251.425 220.133 250.318 220.8C251.545 221.333 253.138 221.813 255.098 222.24ZM249.098 220.2C250.165 219.613 251.078 218.933 251.838 218.16H246.558C246.558 218.16 246.551 218.167 246.538 218.18C247.271 218.967 248.125 219.64 249.098 220.2ZM246.398 222.84C247.105 222.933 248.045 223.107 249.218 223.36C250.405 223.6 251.345 223.82 252.038 224.02L251.878 225.28C251.211 225.027 250.291 224.767 249.118 224.5C247.945 224.233 246.991 224.06 246.258 223.98L246.398 222.84ZM244.918 225.28C245.905 225.373 247.231 225.593 248.898 225.94C250.565 226.287 251.878 226.613 252.838 226.92L252.618 228.2C251.698 227.84 250.418 227.48 248.778 227.12C247.151 226.76 245.811 226.533 244.758 226.44L244.918 225.28ZM266.165 224C265.992 223.667 265.732 223.273 265.385 222.82C265.039 222.353 264.685 221.92 264.325 221.52V231.08H262.845V221.4C262.125 223.133 261.339 224.64 260.485 225.92L259.325 225.1C259.992 224.193 260.645 223.1 261.285 221.82C261.925 220.54 262.432 219.32 262.805 218.16H260.205V216.74H262.845V213.16L264.325 213.22V216.74H266.645V218.16H264.325V220.64L264.825 220.18C265.132 220.473 265.525 220.913 266.005 221.5C266.499 222.073 266.872 222.54 267.125 222.9L266.165 224ZM267.525 214.4H276.625V215.86H267.525V214.4ZM277.645 220.76H272.705V228.8C272.705 229.333 272.625 229.74 272.465 230.02C272.319 230.313 272.059 230.527 271.685 230.66C271.325 230.793 270.799 230.887 270.105 230.94L269.145 231.02L268.625 229.48L269.785 229.4C270.185 229.373 270.472 229.32 270.645 229.24C270.832 229.173 270.959 229.06 271.025 228.9C271.092 228.74 271.125 228.493 271.125 228.16V220.76H266.525V219.3H277.645V220.76ZM269.985 222.8C269.532 224.053 269.045 225.233 268.525 226.34C268.005 227.447 267.399 228.527 266.705 229.58L265.305 228.92C265.972 227.947 266.592 226.873 267.165 225.7C267.739 224.513 268.225 223.373 268.625 222.28L269.985 222.8ZM274.965 222.32C275.419 223.053 275.972 224.1 276.625 225.46C277.292 226.82 277.792 227.933 278.125 228.8L276.765 229.6C276.499 228.707 276.039 227.567 275.385 226.18C274.745 224.793 274.185 223.72 273.705 222.96L274.965 222.32Z" fill="white"/>
<path d="M376.02 218.72H382.1V225.06H369.58V218.72H374.46V213.02L376.02 213.08V215H383.82V216.46H376.02V218.72ZM371.08 223.6H380.6V220.14H371.08V223.6ZM366.8 230.34C367.227 229.847 367.707 229.127 368.24 228.18C368.787 227.233 369.2 226.42 369.48 225.74L370.82 226.24C370.58 226.88 370.187 227.7 369.64 228.7C369.093 229.687 368.613 230.5 368.2 231.14L366.8 230.34ZM381.78 225.76C382.193 226.267 382.693 226.967 383.28 227.86C383.88 228.753 384.327 229.487 384.62 230.06L383.4 231.08C383.12 230.427 382.687 229.647 382.1 228.74C381.513 227.82 380.993 227.073 380.54 226.5L381.78 225.76ZM377.92 226.06C378.16 226.58 378.44 227.28 378.76 228.16C379.08 229.027 379.307 229.733 379.44 230.28L378.02 230.8C377.913 230.227 377.707 229.507 377.4 228.64C377.107 227.76 376.833 227.04 376.58 226.48L377.92 226.06ZM373.88 226.24C374.053 226.84 374.233 227.587 374.42 228.48C374.62 229.36 374.747 230.053 374.8 230.56L373.32 230.98C373.267 230.367 373.147 229.607 372.96 228.7C372.787 227.793 372.62 227.067 372.46 226.52L373.88 226.24ZM404.208 222.14H396.247V228.4H400.808V223.7L402.328 223.76V230.9H400.808V229.82H388.668V223.72L390.168 223.78V228.4H394.768V222.14H386.788V220.7H394.768V217.32H388.088V215.86H394.768V212.8L396.247 212.84V215.86H402.908V217.32H396.247V220.7H404.208V222.14ZM409.575 215.54V228.6H423.915V230.06H407.955V214.04H423.435V215.54H409.575ZM409.955 226.48C411.928 225.227 413.822 223.727 415.635 221.98C413.568 219.98 411.968 218.527 410.835 217.62L411.895 216.52C413.242 217.64 414.855 219.093 416.735 220.88C418.162 219.4 419.388 217.88 420.415 216.32L421.715 217.26C420.582 218.86 419.288 220.42 417.835 221.94C419.675 223.687 421.182 225.2 422.355 226.48L421.335 227.82C420.095 226.447 418.562 224.853 416.735 223.04C414.802 224.92 412.882 226.5 410.975 227.78L409.955 226.48ZM442.063 215.9C441.863 215.553 441.549 215.147 441.123 214.68C440.696 214.2 440.329 213.827 440.023 213.56L440.943 212.76C441.236 213 441.603 213.353 442.043 213.82C442.483 214.287 442.809 214.673 443.023 214.98L442.063 215.9ZM443.723 226.5C443.669 226.847 443.549 227.473 443.363 228.38C443.216 229.02 443.063 229.507 442.903 229.84C442.756 230.173 442.569 230.4 442.343 230.52C442.129 230.653 441.843 230.72 441.483 230.72C441.083 230.72 440.716 230.56 440.383 230.24C440.049 229.933 439.736 229.433 439.443 228.74C439.296 228.407 439.149 227.967 439.003 227.42C438.069 228.607 436.969 229.7 435.703 230.7L434.703 229.56C436.396 228.267 437.703 227 438.623 225.76C438.183 223.44 437.903 220.64 437.783 217.36H431.723V216H437.743C437.703 214.48 437.683 213.427 437.683 212.84L439.043 212.88L439.103 216H443.503V217.36H439.123C439.176 220 439.349 222.273 439.643 224.18C440.403 222.833 441.089 221.067 441.703 218.88L442.923 219.3C442.203 221.873 441.229 224.113 440.003 226.02C440.149 226.713 440.343 227.367 440.583 227.98C440.743 228.393 440.889 228.68 441.023 228.84C441.156 228.987 441.309 229.06 441.483 229.06C441.669 229.06 441.809 228.96 441.903 228.76C442.009 228.547 442.123 228.14 442.243 227.54C442.376 226.927 442.456 226.393 442.483 225.94L443.723 226.5ZM431.663 225.98L431.803 226.74C429.043 227.66 427.216 228.227 426.323 228.44L426.003 227.02C426.523 226.913 427.336 226.687 428.443 226.34V219.34H426.363V217.94H428.443V213.14L429.863 213.2V217.94H431.803V219.34H429.863V225.9L431.543 225.34L431.663 225.98ZM432.223 225.02V219.44H436.683V225.02H432.223ZM433.423 223.72H435.463V220.72H433.423V223.72ZM436.843 226.82L436.963 227.38C436.229 227.633 435.269 227.92 434.083 228.24C432.909 228.547 431.796 228.813 430.743 229.04L430.443 227.72C433.176 227.107 435.269 226.567 436.723 226.1L436.843 226.82ZM462.57 215.28V221.74H451.87V215.28H454.53C454.25 214.707 453.863 214.1 453.37 213.46L454.51 212.78C454.75 213.087 455.003 213.44 455.27 213.84C455.537 214.24 455.737 214.573 455.87 214.84L455.23 215.28H458.15C458.443 214.933 458.75 214.513 459.07 214.02C459.403 213.527 459.67 213.087 459.87 212.7L461.13 213.38C460.783 213.953 460.343 214.587 459.81 215.28H462.57ZM451.63 226.04L451.73 226.78C450.997 227.047 449.997 227.387 448.73 227.8C447.463 228.2 446.477 228.5 445.77 228.7L445.49 227.26C446.143 227.1 447.017 226.847 448.11 226.5V219.48H445.95V218.08H448.11V212.98L449.45 213.04V218.08H451.41V219.48H449.45V226.06C450.383 225.74 451.077 225.493 451.53 225.32L451.63 226.04ZM456.55 216.54H453.13V220.48H456.55V216.54ZM457.77 220.48H461.27V216.54H457.77V220.48ZM454.49 216.94C454.757 217.287 455.043 217.707 455.35 218.2C455.67 218.693 455.903 219.1 456.05 219.42L455.09 220.14C454.943 219.78 454.703 219.327 454.37 218.78C454.05 218.22 453.783 217.807 453.57 217.54L454.49 216.94ZM458.19 219.38C458.47 219.073 458.763 218.687 459.07 218.22C459.39 217.753 459.643 217.333 459.83 216.96L460.79 217.62C460.59 217.98 460.323 218.407 459.99 218.9C459.67 219.38 459.383 219.78 459.13 220.1L458.19 219.38ZM454.01 230.98H452.67V223.18H461.69V230.98H460.33V230.04H454.01V230.98ZM460.33 226.02V224.4H454.01V226.02H460.33ZM454.01 227.24V228.84H460.33V227.24H454.01ZM469.858 212.96C469.858 213.907 469.838 215.02 469.798 216.3H473.918C473.744 223.753 473.658 227.673 473.658 228.06C473.658 228.833 473.518 229.387 473.238 229.72C472.958 230.067 472.438 230.28 471.678 230.36L470.058 230.52L469.558 228.96L471.318 228.8C471.624 228.773 471.838 228.667 471.958 228.48C472.078 228.28 472.138 227.987 472.138 227.6C472.151 227.293 472.218 224.593 472.338 219.5L472.378 217.78H469.758V217.8C469.678 220.067 469.504 221.96 469.238 223.48C468.984 224.987 468.624 226.3 468.158 227.42C467.691 228.54 467.051 229.7 466.238 230.9L464.858 230.16C465.644 229.093 466.264 228.04 466.718 227C467.171 225.947 467.524 224.707 467.778 223.28C468.031 221.84 468.198 220.04 468.278 217.88V217.78H465.878V216.3H468.318L468.358 212.88L469.858 212.96ZM475.558 230.62V215.22H482.078V230.62H480.578V228.98H477.038V230.62H475.558ZM477.038 216.7V227.52H480.578V216.7H477.038ZM489.585 216.76L486.145 217.42V215.96L490.205 215.12H491.385V229H489.585V216.76ZM505.149 217.58C504.562 218.953 503.842 220.313 502.989 221.66L501.669 220.82C502.442 219.7 503.102 218.507 503.649 217.24C504.196 215.973 504.709 214.54 505.189 212.94L506.689 213.3C506.449 214.153 506.136 215.093 505.749 216.12H513.289V217.54L511.189 221.72L509.909 221.1L511.729 217.58H505.149ZM500.409 219.34C500.116 218.673 499.649 217.847 499.009 216.86C498.382 215.86 497.829 215.06 497.349 214.46L498.569 213.68C498.996 214.173 499.522 214.9 500.149 215.86C500.789 216.82 501.289 217.633 501.649 218.3L500.409 219.34ZM514.309 229.68L513.349 230.98C511.816 230.06 510.542 229.053 509.529 227.96C508.529 226.853 507.769 225.627 507.249 224.28C506.782 225.573 506.022 226.773 504.969 227.88C503.929 228.987 502.562 230.053 500.869 231.08L499.889 229.82C501.516 228.9 502.796 227.987 503.729 227.08C504.676 226.16 505.356 225.173 505.769 224.12C506.182 223.053 506.389 221.82 506.389 220.42V218.66L507.889 218.72V220.56L507.869 221.32C508.109 223.107 508.756 224.687 509.809 226.06C510.876 227.42 512.376 228.627 514.309 229.68ZM501.269 222.22C501.016 223.313 500.596 224.727 500.009 226.46C499.436 228.18 498.936 229.507 498.509 230.44L496.869 229.8C497.362 228.92 497.909 227.647 498.509 225.98C499.109 224.3 499.536 222.9 499.789 221.78L501.269 222.22ZM534.036 220.2H528.176V223.22H532.296V230.86H530.776V229.76H524.116V230.86H522.616V223.22H526.616V220.2H521.496V218.76H526.616V215.48C525.176 215.6 523.703 215.7 522.196 215.78L521.956 214.38C523.49 214.313 525.316 214.18 527.436 213.98C529.556 213.78 531.25 213.573 532.516 213.36L532.796 214.76C531.276 214.987 529.736 215.173 528.176 215.32V218.76H534.036V220.2ZM520.676 217.68C520.25 217.24 519.663 216.727 518.916 216.14C518.17 215.54 517.543 215.08 517.036 214.76L517.856 213.6C518.363 213.893 518.996 214.32 519.756 214.88C520.516 215.44 521.096 215.907 521.496 216.28L520.676 217.68ZM516.916 218.12C517.45 218.44 518.123 218.907 518.936 219.52C519.75 220.133 520.37 220.633 520.796 221.02L519.936 222.46C519.523 222.02 518.916 221.487 518.116 220.86C517.316 220.22 516.636 219.713 516.076 219.34L516.916 218.12ZM520.056 223.82L520.796 224.1C520.583 224.953 520.216 226.073 519.696 227.46C519.19 228.847 518.73 229.933 518.316 230.72L516.876 230.2C517.276 229.48 517.736 228.42 518.256 227.02C518.79 225.62 519.163 224.473 519.376 223.58L520.056 223.82ZM524.116 228.32H530.776V224.64H524.116V228.32ZM552.724 216.9C552.684 218.273 552.624 220.073 552.544 222.3C552.477 224.513 552.411 226.36 552.344 227.84C552.317 228.48 552.217 228.967 552.044 229.3C551.871 229.633 551.584 229.88 551.184 230.04C550.784 230.2 550.177 230.327 549.364 230.42L548.204 230.56L547.744 229L549.044 228.9C549.577 228.847 549.964 228.773 550.204 228.68C550.457 228.573 550.637 228.407 550.744 228.18C550.851 227.953 550.917 227.6 550.944 227.12C550.997 225.96 551.057 224.5 551.124 222.74C551.191 220.98 551.244 219.52 551.284 218.36H548.104C548.024 220.907 547.897 222.847 547.724 224.18C547.551 225.5 547.217 226.693 546.724 227.76C546.231 228.827 545.444 230.007 544.364 231.3L543.084 230.4C544.124 229.24 544.877 228.18 545.344 227.22C545.824 226.247 546.144 225.14 546.304 223.9C546.464 222.66 546.584 220.813 546.664 218.36H544.224V216.9H546.684L546.764 212.94L548.224 213.02L548.164 216.9H552.724ZM537.104 214.5H544.184V215.92H537.104V214.5ZM543.384 229.02C543.291 228.673 543.191 228.32 543.084 227.96L538.044 228.68C537.711 228.72 537.291 228.827 536.784 229L536.224 227.48C536.464 227.387 536.637 227.273 536.744 227.14C536.864 227.007 536.984 226.827 537.104 226.6C537.397 226 537.757 225.14 538.184 224.02C538.611 222.887 538.964 221.847 539.244 220.9H536.084V219.46H544.804V220.9H540.784C540.477 221.94 540.091 223.087 539.624 224.34C539.171 225.593 538.784 226.52 538.464 227.12L542.604 226.56C542.111 225.173 541.617 224.007 541.124 223.06L542.464 222.54C542.851 223.313 543.271 224.28 543.724 225.44C544.191 226.587 544.511 227.507 544.684 228.2L543.384 229.02Z" fill="white"/>
<path d="M271.158 149V159" stroke="#D5FC74" stroke-width="3" stroke-linecap="round" stroke-linejoin="round"/>
<path fill-rule="evenodd" clip-rule="evenodd" d="M268.658 171.5L293.658 176.5L286.158 181.5L293.658 189L286.158 196.5L278.658 189L273.658 196.5L268.658 171.5Z" stroke="#D5FC74" stroke-width="3" stroke-linecap="round" stroke-linejoin="round"/>
<path d="M288.837 156.322L281.766 163.393" stroke="#D5FC74" stroke-width="3" stroke-linecap="round" stroke-linejoin="round"/>
<path d="M253.481 191.678L260.552 184.607" stroke="#D5FC74" stroke-width="3" stroke-linecap="round" stroke-linejoin="round"/>
<path d="M246.158 174H256.158" stroke="#D5FC74" stroke-width="3" stroke-linecap="round" stroke-linejoin="round"/>
<path d="M253.481 156.322L260.552 163.393" stroke="#D5FC74" stroke-width="3" stroke-linecap="round" stroke-linejoin="round"/>
<path d="M525.158 149V159" stroke="#D5FC74" stroke-width="3" stroke-linecap="round" stroke-linejoin="round"/>
<path fill-rule="evenodd" clip-rule="evenodd" d="M522.658 171.5L547.658 176.5L540.158 181.5L547.658 189L540.158 196.5L532.658 189L527.658 196.5L522.658 171.5Z" stroke="#D5FC74" stroke-width="3" stroke-linecap="round" stroke-linejoin="round"/>
<path d="M542.837 156.322L535.766 163.393" stroke="#D5FC74" stroke-width="3" stroke-linecap="round" stroke-linejoin="round"/>
<path d="M507.481 191.678L514.552 184.607" stroke="#D5FC74" stroke-width="3" stroke-linecap="round" stroke-linejoin="round"/>
<path d="M500.158 174H510.158" stroke="#D5FC74" stroke-width="3" stroke-linecap="round" stroke-linejoin="round"/>
<path d="M507.481 156.322L514.552 163.393" stroke="#D5FC74" stroke-width="3" stroke-linecap="round" stroke-linejoin="round"/>
<defs>
<filter id="filter0_d_941_1238" x="70.1582" y="67" width="96" height="99" filterUnits="userSpaceOnUse" color-interpolation-filters="sRGB">
<feFlood flood-opacity="0" result="BackgroundImageFix"/>
<feColorMatrix in="SourceAlpha" type="matrix" values="0 0 0 0 0 0 0 0 0 0 0 0 0 0 0 0 0 0 127 0" result="hardAlpha"/>
<feOffset dy="3"/>
<feComposite in2="hardAlpha" operator="out"/>
<feColorMatrix type="matrix" values="0 0 0 0 0 0 0 0 0 0 0 0 0 0 0 0 0 0 1 0"/>
<feBlend mode="normal" in2="BackgroundImageFix" result="effect1_dropShadow_941_1238"/>
<feBlend mode="normal" in="SourceGraphic" in2="effect1_dropShadow_941_1238" result="shape"/>
</filter>
<clipPath id="clip0_941_1238">
<rect x="76.9082" y="73.75" width="82.5" height="82.5" rx="5.25" fill="white"/>
</clipPath>
</defs>
</svg>
