<svg width="328" height="242" viewBox="0 0 328 242" fill="none" xmlns="http://www.w3.org/2000/svg">
<rect width="328" height="242" rx="12" fill="#292929"/>
<path d="M100.499 72.667V92.0003" stroke="#D5FC74" stroke-width="4.80502" stroke-linecap="round" stroke-linejoin="round"/>
<path fill-rule="evenodd" clip-rule="evenodd" d="M95.666 116.167L143.999 125.834L129.499 135.5L143.999 150L129.499 164.5L114.999 150L105.333 164.5L95.666 116.167Z" stroke="#D5FC74" stroke-width="4.80502" stroke-linecap="round" stroke-linejoin="round"/>
<path d="M134.678 86.8232L121.008 100.494" stroke="#D5FC74" stroke-width="4.80502" stroke-linecap="round" stroke-linejoin="round"/>
<path d="M66.3232 155.176L79.9939 141.506" stroke="#D5FC74" stroke-width="4.80502" stroke-linecap="round" stroke-linejoin="round"/>
<path d="M52.166 121H71.4993" stroke="#D5FC74" stroke-width="4.80502" stroke-linecap="round" stroke-linejoin="round"/>
<path d="M66.3232 86.8232L79.994 100.494" stroke="#D5FC74" stroke-width="4.80502" stroke-linecap="round" stroke-linejoin="round"/>
<path d="M206.985 89.4H213.145V96.44H199.685V89.4H204.785V83.98L206.985 84.06V85.58H214.345V87.8H206.985V89.4ZM201.805 94.3H211.025V91.58H201.805V94.3ZM212.765 96.58C213.498 97.7533 214.258 99.1533 215.045 100.78L213.205 102.04C212.978 101.427 212.645 100.687 212.205 99.82C211.778 98.9533 211.352 98.1667 210.925 97.46L212.765 96.58ZM197.545 101.14C197.972 100.527 198.385 99.8067 198.785 98.98C199.185 98.14 199.518 97.3533 199.785 96.62L201.685 97.42C201.432 98.1667 201.092 98.9867 200.665 99.88C200.252 100.773 199.852 101.56 199.465 102.24L197.545 101.14ZM208.745 96.98C209.212 97.8467 209.678 99.1867 210.145 101L208.185 101.68C208.105 101.12 207.938 100.46 207.685 99.7C207.432 98.94 207.158 98.2267 206.865 97.56L208.745 96.98ZM204.705 97.16C204.905 97.7733 205.078 98.48 205.225 99.28C205.385 100.067 205.485 100.74 205.525 101.3L203.465 101.82C203.358 100.767 203.112 99.3533 202.725 97.58L204.705 97.16ZM234.753 93.38H227.233V99.18H230.993V94.7L233.213 94.8V101.96H230.993V101.22H219.093V94.72L221.293 94.8V99.18H225.053V93.38H217.513V91.26H225.053V88.54H218.693V86.42H225.053V83.78L227.233 83.86V86.42H233.573V88.54H227.233V91.26H234.753V93.38ZM254.82 96.6C254.78 97.4 254.707 98.1667 254.6 98.9C254.507 99.5933 254.353 100.127 254.14 100.5C253.927 100.887 253.613 101.167 253.2 101.34C252.8 101.513 252.253 101.613 251.56 101.64C251.4 101.653 251.16 101.66 250.84 101.66C250.533 101.66 250.293 101.653 250.12 101.64C249.427 101.613 248.88 101.507 248.48 101.32C248.093 101.133 247.807 100.827 247.62 100.4C247.447 99.9867 247.36 99.3933 247.36 98.62V83.86L249.54 83.94V90.12C250.1 89.6667 250.687 89.16 251.3 88.6C251.913 88.0267 252.433 87.5067 252.86 87.04L254.32 88.9C253.693 89.5533 252.94 90.26 252.06 91.02C251.18 91.7667 250.34 92.4267 249.54 93V98.24C249.54 98.6533 249.62 98.9467 249.78 99.12C249.94 99.28 250.22 99.3733 250.62 99.4C250.887 99.4267 251.16 99.4267 251.44 99.4C251.76 99.3733 251.993 99.3267 252.14 99.26C252.287 99.1933 252.393 99.08 252.46 98.92C252.527 98.7467 252.587 98.4733 252.64 98.1C252.693 97.7533 252.733 97.2667 252.76 96.64L252.8 95.9L254.82 96.6ZM246.72 98.28L246.8 99.34C246.44 99.4467 244.84 99.7933 242 100.38C239.16 100.967 237.52 101.293 237.08 101.36L236.78 99.1L238.5 98.76V87.24L240.62 87.32V98.34L242.34 98V84.18L244.48 84.26V89.22H246.64V91.48H244.48V97.56L245.38 97.36L246.62 97.08L246.72 98.28ZM272.328 99.36C273.301 99.36 274.028 99.3533 274.508 99.34L274.028 101.62C273.041 101.647 272.308 101.66 271.828 101.66C271.361 101.66 270.634 101.647 269.648 101.62C267.901 101.58 266.381 101.34 265.088 100.9C263.808 100.46 262.681 99.7133 261.708 98.66C260.681 99.9 259.461 101.14 258.048 102.38L256.347 100.7C257.948 99.4067 259.274 98.0933 260.328 96.76C259.754 95.7867 259.248 94.6067 258.808 93.22C258.501 93.8067 258.148 94.4067 257.748 95.02L256.408 93.22C257.114 92.1 257.768 90.7133 258.368 89.06C258.981 87.4067 259.468 85.7 259.828 83.94L261.948 84.32C261.801 85.0667 261.608 85.8533 261.368 86.68H265.988V88.96C265.734 90.4533 265.368 91.84 264.888 93.12C264.408 94.4 263.794 95.6267 263.048 96.8C263.888 97.7067 264.874 98.3467 266.008 98.72C267.141 99.0933 268.521 99.3 270.148 99.34C270.641 99.3533 271.368 99.36 272.328 99.36ZM269.588 98.88H267.368V84.06L269.588 84.14V89.78L270.188 88.84L270.948 89.38C272.628 90.6067 273.774 91.46 274.388 91.94L273.468 94.1C272.868 93.5533 272.208 92.9933 271.488 92.42C270.768 91.8333 270.134 91.34 269.588 90.94V98.88ZM261.668 94.8C262.708 93.0533 263.428 91.1067 263.828 88.96H260.668C260.428 89.6 260.241 90.08 260.108 90.4C260.534 92.1467 261.054 93.6133 261.668 94.8ZM187.881 119.04L187.641 118.02C187.815 117.967 187.948 117.907 188.041 117.84C188.135 117.76 188.228 117.66 188.321 117.54C188.708 117.073 189.195 116.273 189.781 115.14C190.381 114.007 190.888 112.913 191.301 111.86L192.241 112.26C191.828 113.273 191.328 114.327 190.741 115.42C190.155 116.513 189.655 117.34 189.241 117.9C189.575 117.873 190.501 117.82 192.021 117.74C192.621 116.66 193.115 115.707 193.501 114.88L194.421 115.34C193.835 116.54 193.075 117.933 192.141 119.52C191.208 121.093 190.468 122.24 189.921 122.96C189.868 122.973 190.901 122.82 193.021 122.5L193.741 122.4L193.781 123.46C193.275 123.513 192.455 123.627 191.321 123.8C190.188 123.96 189.488 124.067 189.221 124.12C188.968 124.16 188.648 124.24 188.261 124.36L187.961 123.3C188.228 123.193 188.428 123.093 188.561 123C188.695 122.893 188.828 122.76 188.961 122.6C189.668 121.693 190.495 120.407 191.441 118.74C191.068 118.753 190.161 118.807 188.721 118.9C188.548 118.913 188.268 118.96 187.881 119.04ZM199.661 112.08C200.915 114.787 202.921 117.113 205.681 119.06L205.021 119.94C203.661 118.913 202.501 117.86 201.541 116.78C200.581 115.7 199.795 114.533 199.181 113.28C198.608 114.507 197.855 115.707 196.921 116.88C195.988 118.053 194.961 119.06 193.841 119.9L193.161 119.06C194.375 118.18 195.455 117.133 196.401 115.92C197.348 114.707 198.108 113.427 198.681 112.08H199.661ZM195.921 119.52V118.52H202.401V119.52H195.921ZM196.081 129.76H195.101V122.18H203.241V129.8H202.241V128.68H196.081V129.76ZM202.241 127.7V123.18H196.081V127.7H202.241ZM194.221 126.56L194.281 127.06C193.415 127.287 192.321 127.533 191.001 127.8C189.681 128.053 188.541 128.247 187.581 128.38L187.301 127.34C188.301 127.193 189.475 126.987 190.821 126.72C192.168 126.44 193.281 126.187 194.161 125.96L194.221 126.56ZM225.109 128.82L224.389 129.88C222.309 128.6 220.582 127.187 219.209 125.64C217.835 124.093 216.889 122.5 216.369 120.86C215.849 122.553 214.909 124.14 213.549 125.62C212.189 127.1 210.442 128.54 208.309 129.94L207.549 128.86C210.042 127.367 211.989 125.747 213.389 124C214.802 122.24 215.555 120.273 215.649 118.1H208.109V116.98H215.669V112L216.829 112.06V116.98H224.529V118.1H216.829L216.789 118.58C217.495 122.633 220.269 126.047 225.109 128.82ZM244.856 114.68V115.68H233.676V114.68H238.616C238.39 113.84 238.13 113.027 237.836 112.24L238.916 112.06C239.13 112.58 239.396 113.453 239.716 114.68H244.856ZM228.376 113.32H232.656V127.76C232.656 128.413 232.536 128.853 232.296 129.08C232.056 129.32 231.59 129.467 230.896 129.52L230.016 129.6L229.716 128.54L230.716 128.46C231.023 128.433 231.243 128.387 231.376 128.32C231.51 128.267 231.596 128.16 231.636 128C231.676 127.853 231.696 127.62 231.696 127.3V123.46H229.256C229.19 124.927 229.016 126.12 228.736 127.04C228.456 127.947 228.016 128.927 227.416 129.98L226.596 129.48C227.063 128.627 227.416 127.867 227.656 127.2C227.896 126.533 228.076 125.687 228.196 124.66C228.316 123.633 228.376 122.247 228.376 120.5V113.32ZM231.696 117.98V114.32H229.296V117.98H231.696ZM235.556 126.1C236.49 124.913 237.496 123.367 238.576 121.46C237.403 119.487 236.49 118.04 235.836 117.12L236.576 116.58C237.096 117.313 237.936 118.633 239.096 120.54C239.883 119.06 240.55 117.693 241.096 116.44L241.956 116.8C241.263 118.4 240.496 119.96 239.656 121.48C240.816 123.44 241.683 125 242.256 126.16L241.476 126.76C240.89 125.533 240.11 124.08 239.136 122.4C238.15 124.093 237.19 125.547 236.256 126.76L235.556 126.1ZM235.276 127.82H242.516V117.86L243.536 117.9V129.82H242.516V128.78H234.276V117.9L235.276 117.94V127.82ZM229.296 122.48H231.696V118.98H229.296V121.9V122.48ZM256.544 117.14C256.664 116.793 256.864 116.167 257.144 115.26H251.704V114.32H255.564C255.35 113.973 255.097 113.593 254.804 113.18C254.51 112.753 254.25 112.407 254.024 112.14L254.844 111.6C255.07 111.853 255.344 112.207 255.664 112.66C255.984 113.1 256.264 113.507 256.504 113.88L255.884 114.32H258.684C259.03 113.947 259.41 113.487 259.824 112.94C260.25 112.38 260.57 111.92 260.784 111.56L261.724 112.08C261.31 112.733 260.744 113.48 260.024 114.32H264.164V115.26H258.264C258.09 115.953 257.897 116.58 257.684 117.14H262.364V126.2H253.204V117.14H256.544ZM250.064 116.88C249.81 116.347 249.41 115.673 248.864 114.86C248.33 114.033 247.884 113.393 247.524 112.94L248.404 112.32C248.764 112.733 249.217 113.347 249.764 114.16C250.31 114.973 250.717 115.633 250.984 116.14L250.064 116.88ZM254.264 119.88H261.284V117.98H254.264V119.88ZM258.984 128.18C260.57 128.18 262.45 128.133 264.624 128.04L264.404 129.08C262.257 129.173 260.397 129.22 258.824 129.22C257.69 129.22 256.564 129.2 255.444 129.16C254.47 129.133 253.684 129.053 253.084 128.92C252.484 128.8 251.93 128.567 251.424 128.22C250.93 127.873 250.424 127.347 249.904 126.64C249.117 127.533 248.257 128.447 247.324 129.38L246.724 128.4L249.344 125.58V119.88H246.864V118.8H250.404V125.56C250.884 126.267 251.35 126.8 251.804 127.16C252.27 127.507 252.784 127.747 253.344 127.88C253.917 128.013 254.664 128.093 255.584 128.12C256.704 128.16 257.837 128.18 258.984 128.18ZM261.284 120.74H254.264V122.58H261.284V120.74ZM254.264 123.42V125.34H261.284V123.42H254.264ZM284.071 121.02L283.671 121.98C281.618 121.327 279.911 120.507 278.551 119.52C277.298 120.48 275.698 121.327 273.751 122.06L273.231 121.1C275.058 120.447 276.565 119.7 277.751 118.86C276.845 118.033 276.058 117.08 275.391 116C274.911 116.653 274.425 117.233 273.931 117.74L273.311 116.96C274.031 116.2 274.698 115.34 275.311 114.38C275.938 113.42 276.425 112.5 276.771 111.62L277.771 111.86C277.531 112.447 277.245 113.047 276.911 113.66H282.451V114.64C281.625 116.36 280.571 117.78 279.291 118.9C280.478 119.74 282.071 120.447 284.071 121.02ZM273.711 126.98L273.731 127.44C272.811 127.613 271.558 127.82 269.971 128.06C268.398 128.313 267.111 128.5 266.111 128.62L265.971 127.62L267.251 127.46V120.28L268.191 120.32V127.32C269.191 127.173 269.885 127.067 270.271 127V118.6H267.571V112.98H272.851V118.6H271.231V121.92H273.531V122.9H271.231V126.84L273.671 126.4L273.711 126.98ZM271.911 113.98H268.491V117.6H271.911V113.98ZM278.491 118.28C279.665 117.293 280.631 116.073 281.391 114.62H276.351L276.011 115.14C276.705 116.407 277.531 117.453 278.491 118.28ZM275.631 129.66H274.651V122.64H281.991V129.66H280.991V128.44H275.631V129.66ZM280.991 127.52V123.62H275.631V127.52H280.991ZM199.965 143.62C199.325 144.927 198.672 146.04 198.005 146.96L197.205 146.34C197.872 145.42 198.492 144.38 199.065 143.22C199.638 142.047 200.072 140.927 200.365 139.86L201.325 140.22C201.138 140.873 200.845 141.667 200.445 142.6H203.525V143.62H199.965ZM213.045 142.5C212.538 141.873 211.892 141.207 211.105 140.5L211.825 139.86C212.118 140.1 212.458 140.42 212.845 140.82C213.232 141.207 213.545 141.54 213.785 141.82L213.045 142.5ZM215.305 143.6H209.585V145.84H214.005V155.64C214.005 156.12 213.952 156.48 213.845 156.72C213.738 156.973 213.552 157.153 213.285 157.26C213.018 157.38 212.618 157.467 212.085 157.52L211.025 157.62L210.685 156.62L211.785 156.52C212.145 156.48 212.405 156.427 212.565 156.36C212.738 156.307 212.852 156.2 212.905 156.04C212.958 155.893 212.985 155.653 212.985 155.32V153.7H209.585V157.4H208.585V153.7H205.265V157.66H204.245V145.84H208.585V143.6H204.105V142.62H208.585V139.9L209.585 139.98V142.62H215.305V143.6ZM201.005 147.16V149.9H203.625V150.92H201.005V155.62L203.145 154L203.465 154.96C203.398 155 203.145 155.173 202.705 155.48C202.278 155.787 201.925 156.04 201.645 156.24L200.765 156.88C200.592 157.013 200.345 157.227 200.025 157.52L199.465 156.66C199.665 156.473 199.798 156.32 199.865 156.2C199.932 156.08 199.978 155.927 200.005 155.74V150.92H197.925V149.9H200.005V147.16H198.625V146.14H203.265V147.16H201.005ZM208.585 149.3V146.86H205.265V149.3H208.585ZM212.985 149.3V146.86H209.585V149.3H212.985ZM205.265 150.28V152.72H208.585V150.28H205.265ZM209.585 150.28V152.72H212.985V150.28H209.585ZM217.293 148.84V147.64H234.933V148.84H217.293ZM244.96 153.52C244.133 153.68 242.48 153.94 240 154.3V157.96H238.98V154.44L236.9 154.72L236.76 153.66L238.98 153.38V141.38C239.847 141.313 240.84 141.187 241.96 141C243.08 140.8 244 140.593 244.72 140.38L245 141.38C244.373 141.553 243.567 141.733 242.58 141.92C241.607 142.107 240.747 142.24 240 142.32V145H244.34V146H240V148.9H244.34V149.94H240V153.24C241.853 152.987 243.493 152.747 244.92 152.52L244.94 153.08L244.96 153.52ZM244.6 146.98C245.147 146.54 245.547 146.147 245.8 145.8C246.067 145.44 246.24 145.067 246.32 144.68C246.4 144.293 246.44 143.78 246.44 143.14V141.04H251.96V144.7C251.96 145.14 252.027 145.433 252.16 145.58C252.293 145.713 252.567 145.787 252.98 145.8H254.52L254.34 146.82H252.68C252.08 146.793 251.647 146.66 251.38 146.42C251.127 146.167 251 145.727 251 145.1V142.08H247.44V143.46C247.44 144.353 247.293 145.1 247 145.7C246.72 146.287 246.167 146.94 245.34 147.66L244.6 146.98ZM254.38 157.9C252.1 156.94 250.333 155.92 249.08 154.84C247.733 155.92 245.9 156.953 243.58 157.94L243.02 156.96C245.287 156.053 247.053 155.113 248.32 154.14C247.693 153.5 247.153 152.78 246.7 151.98C246.247 151.18 245.84 150.26 245.48 149.22H244.82V148.22H253.02V149.26C252.673 150.26 252.24 151.16 251.72 151.96C251.213 152.76 250.593 153.5 249.86 154.18C251.06 155.167 252.733 156.067 254.88 156.88L254.38 157.9ZM246.58 149.22C247.193 150.98 248.033 152.407 249.1 153.5C249.767 152.913 250.327 152.273 250.78 151.58C251.233 150.887 251.62 150.1 251.94 149.22H246.58ZM259.748 142.12H261.048L260.888 152.66H259.908L259.748 142.12ZM260.408 154.08C260.808 154.08 261.081 154.147 261.228 154.28C261.374 154.4 261.448 154.673 261.448 155.1C261.448 155.54 261.374 155.827 261.228 155.96C261.081 156.093 260.808 156.16 260.408 156.16C260.008 156.16 259.734 156.093 259.588 155.96C259.441 155.827 259.368 155.54 259.368 155.1C259.368 154.673 259.441 154.4 259.588 154.28C259.734 154.147 260.008 154.08 260.408 154.08Z" fill="white"/>
</svg>
