<svg width="356" height="42" viewBox="0 0 356 42" fill="none" xmlns="http://www.w3.org/2000/svg">
<path d="M40.635 41.67C35.325 39.99 31.05 37.83 27.81 35.19C24.6 32.52 22.11 29.205 20.34 25.245C18.54 29.205 16.02 32.52 12.78 35.19C9.57 37.83 5.31 39.99 0 41.67V35.235C3.24 33.915 5.925 32.475 8.055 30.915C10.215 29.355 12.03 27.42 13.5 25.11C15 22.8 16.275 19.89 17.325 16.38H0.0449999V10.53H17.37L17.325 0.269999H23.265V10.53H40.545V16.38H23.31C24.36 19.89 25.62 22.8 27.09 25.11C28.59 27.42 30.405 29.355 32.535 30.915C34.695 32.475 37.395 33.915 40.635 35.235V41.67Z" fill="#252525"/>
<path d="M62.505 11.385H67.77L67.275 10.035H72.135L74.205 15.66L76.32 10.035H80.82L80.325 11.385H85.455V40.41H62.505V11.385ZM44.145 41.22C44.895 38.22 45.42 35.205 45.72 32.175C46.02 29.145 46.17 25.815 46.17 22.185V1.26H60.345V41.22H54.9V29.88H51.39C51.18 33.42 50.685 37.2 49.905 41.22H44.145ZM54.9 24.345V18.45H51.615V24.345H54.9ZM54.9 12.915V7.02H51.615V12.915H54.9ZM61.965 2.655H71.1V0.0449994H76.86V2.655H85.995V8.28H61.965V2.655ZM79.83 34.74V32.445H76.5L73.935 25.47L71.37 32.445H68.13V34.74H79.83ZM71.19 20.61L68.13 12.33V28.8L71.19 20.61ZM79.83 29.07V12.645L76.725 20.79L79.83 29.07Z" fill="#252525"/>
<path d="M124.065 21.015H117.585C117.165 22.695 116.655 24.27 116.055 25.74H109.44C110.79 23.4 111.72 21.12 112.23 18.9C112.74 16.65 112.995 14.085 112.995 11.205V0.945001H129.735V25.965H124.065V21.015ZM89.82 35.64H107.325V33.075H91.755V27.81H107.325V26.235H113.265V27.81H128.835V33.075H113.265V35.64H130.77V40.905H89.82V35.64ZM89.91 2.16H93.015L92.16 0H97.425L98.28 2.16H103.05L103.905 0H109.17L108.315 2.16H111.42V7.38H103.275V14.85H105.525V8.64H110.655V20.07H102.915C102.525 22.05 101.685 24.015 100.395 25.965H93.42C95.34 24.045 96.57 22.08 97.11 20.07H90.675V8.64H95.805V14.85H98.055V7.38H89.91V2.16ZM124.065 16.2V13.455H118.575C118.515 14.655 118.455 15.57 118.395 16.2H124.065ZM124.065 8.64V5.895H118.62V8.64H124.065Z" fill="#252525"/>
<path d="M175.995 35.37V40.77H153.945C151.215 40.77 148.92 40.605 147.06 40.275C145.23 39.975 143.58 39.45 142.11 38.7C141.75 40.02 141.51 40.86 141.39 41.22H135.135C136.545 37.29 137.58 33.645 138.24 30.285C138.9 26.925 139.305 23.295 139.455 19.395H134.145V13.545H145.35C145.35 17.475 145.215 20.985 144.945 24.075C144.675 27.135 144.195 30.21 143.505 33.3C144.855 34.05 146.34 34.59 147.96 34.92C149.61 35.22 151.605 35.37 153.945 35.37H175.995ZM142.065 0.720001L145.17 10.485H139.095L135.99 0.720001H142.065ZM146.475 13.41H158.13V9H153.36C153.03 10.17 152.67 11.28 152.28 12.33H146.52C148.14 8.4 149.115 4.53 149.445 0.720001H154.71C154.59 2.22 154.47 3.33 154.35 4.05H158.13V0.269999H163.935V4.05H173.61V9H163.935V13.41H175.545V18.36H146.475V13.41ZM148.59 20.07H172.395V33.66H148.59V20.07ZM166.68 28.89V24.84H154.305V28.89H166.68Z" fill="#252525"/>
<path d="M187.155 10.935H180.09V5.355H187.155V0.494999H192.78V5.355H196.155V10.44C199.575 7.86 201.915 4.62 203.175 0.720001H214.155C215.445 4.68 217.8 7.935 221.22 10.485V17.235C219.66 16.335 218.175 15.285 216.765 14.085V18.9H200.565V14.085C199.155 15.285 197.67 16.335 196.11 17.235V10.935H192.78V16.065L195.975 18.63V25.425L192.78 22.86V41.22H187.155V10.935ZM178.83 38.88C179.58 35.1 180.09 31.11 180.36 26.91C180.66 22.71 180.81 18 180.81 12.78H185.445C185.445 18.36 185.355 23.13 185.175 27.09C184.995 31.05 184.53 34.98 183.78 38.88H178.83ZM196.605 35.46H212.175L213.84 21.51H218.88L217.215 35.46H220.5V40.86H196.605V35.46ZM202.68 21.51L204.03 32.76H198.99L197.64 21.51H202.68ZM216.135 13.5C213.975 11.52 212.175 9.105 210.735 6.255H206.595C205.155 9.105 203.355 11.52 201.195 13.5H216.135ZM210.06 21.51L211.41 32.76H206.37L205.02 21.51H210.06Z" fill="#252525"/>
<path d="M252.945 1.395V29.025H249.48C252.12 31.845 253.89 35.91 254.79 41.22H249.66C249.15 37.44 247.845 34.455 245.745 32.265C244.875 34.575 243.54 36.54 241.74 38.16C239.97 39.81 237.81 40.98 235.26 41.67V35.73C236.76 35.31 238.065 34.59 239.175 33.57C240.285 32.52 241.14 31.29 241.74 29.88C242.34 28.47 242.64 27.015 242.64 25.515V9.585H246.915V25.515C246.915 26.085 246.9 26.505 246.87 26.775L248.265 27.855V7.065H241.29V29.475H236.61L236.655 1.395H252.945ZM231.21 41.22C233.34 35.91 234.87 29.52 235.8 22.05H229.77C228.96 28.38 227.25 34.77 224.64 41.22H231.21ZM235.8 19.98V13.95L225.045 11.295V17.415L235.8 19.98ZM235.71 9.36V3.24L225.945 0.720001V6.84L235.71 9.36ZM254.475 2.97H258.57V32.085H254.475V2.97ZM256.185 35.55H260.055V0.720001H264.87V41.22H256.185V35.55Z" fill="#252525"/>
<path d="M286.875 1.395H309.78L308.295 15.75H296.685V10.395H303.165L303.435 6.93H292.635V17.82H310.95C309.63 22.95 307.77 27.675 305.37 31.995L311.445 41.22H305.37L302.355 36.675C301.305 38.175 300.09 39.69 298.71 41.22H286.875V1.395ZM269.865 21.915L274.86 20.61V12.42H270.315V6.705H274.86V0.494999H280.71V6.705H284.985V12.42H280.71V19.08L285.075 17.955V24.21L280.71 25.335V41.22H271.395V35.415H274.86V26.865L269.865 28.17V21.915ZM292.635 40.32C294.855 37.98 296.91 35.46 298.8 32.76L292.77 23.085H292.635V40.32ZM301.815 27.855C302.745 26.145 303.495 24.555 304.065 23.085H298.98L301.815 27.855Z" fill="#252525"/>
<path d="M352.26 23.49V40.77H318.33V23.49H352.26ZM314.64 15.03H332.865L332.82 9.18H323.46C323.04 10.53 322.47 11.985 321.75 13.545H315.135C317.355 9.225 318.705 4.95 319.185 0.720001H325.08C324.96 2.04 324.855 3.015 324.765 3.645H332.82V0.269999H338.67V3.645H353.61V9.18H338.67V15.03H355.95V20.565H314.64V15.03ZM346.41 35.19V29.07H324.18V35.19H346.41Z" fill="#252525"/>
</svg>
