<svg width="295" height="34" viewBox="0 0 295 34" fill="none" xmlns="http://www.w3.org/2000/svg">
<path d="M16.956 33.12C18.54 30.96 19.836 29.1 20.844 27.54C21.876 25.956 22.764 24.36 23.508 22.752L21.42 16.92H17.388C19.116 11.976 20.376 6.48 21.168 0.432001H25.812C25.668 1.704 25.488 2.976 25.272 4.248H33.048V8.928H31.716C31.092 14.16 30.144 18.552 28.872 22.104L33.408 33.12H28.44L26.136 27.468C25.32 29.052 24.18 30.936 22.716 33.12H16.956ZM3.06 13.86H0V9.756H6.012V7.416H1.296V3.312H6.012V0.720001H10.548V3.312H12.708V6.912L14.328 2.34H18.936L16.308 9.756H17.892V13.86H7.812L7.164 15.516H16.668L13.284 21.924L19.512 20.808V24.984L12.672 26.208V33.12H4.428V29.052H8.136V26.316L0.36 27.72V23.544L8.532 22.068L9.936 19.584H5.58L4.752 21.708H0L3.06 13.86ZM11.7 9.756L12.528 7.416H10.548V9.756H11.7ZM25.92 16.812C26.616 14.34 27.132 11.712 27.468 8.928H24.444L24.012 10.908L25.92 16.812Z" fill="#252525"/>
<path d="M37.44 29.088C41.256 28.68 45.528 27.78 50.256 26.388H35.748V22.284H39.6V1.008H65.52V22.284H69.372V26.388H54.864C59.592 27.78 63.864 28.68 67.68 29.088V33.48C62.904 32.88 58.548 31.968 54.612 30.744V26.388H50.508V30.744C46.572 31.968 42.216 32.88 37.44 33.48V29.088ZM60.84 22.284V20.736H44.28V22.284H60.84ZM60.84 17.064V15.516H44.28V17.064H60.84ZM60.84 11.88V10.296H44.28V11.88H60.84ZM60.84 6.66V5.076H44.28V6.66H60.84Z" fill="#252525"/>
<path d="M104.22 20.88H97.632V22.248H105.192V26.1H98.244C99.348 26.844 100.476 27.48 101.628 28.008C102.78 28.512 104.064 28.956 105.48 29.34V33.48C103.176 32.784 101.244 32.1 99.684 31.428C98.124 30.78 96.612 29.868 95.148 28.692C93.612 29.916 92.04 30.864 90.432 31.536C88.824 32.232 86.952 32.88 84.816 33.48V29.34C86.232 28.956 87.504 28.512 88.632 28.008C89.784 27.48 90.912 26.844 92.016 26.1H85.104V22.248H92.952V20.88H86.4V8.172H104.22V20.88ZM71.748 31.248C72.276 28.632 72.612 25.896 72.756 23.04C72.9 20.184 72.972 16.704 72.972 12.6V10.368H76.428L76.464 17.46C76.464 20.124 76.392 22.572 76.248 24.804C76.104 27.012 75.84 29.16 75.456 31.248H71.748ZM72.396 4.428H77.184V0.539999H81.756V4.428H85.104V8.892H81.828V12.816L84.384 15.048V20.484L81.828 18.252V33.12H77.4V8.892H72.396V4.428ZM85.572 2.016H88.056V0.539999H92.304V2.016H98.28V0.539999H102.528V2.016H105.012V5.976H102.528V7.596H98.28V5.976H92.304V7.596H88.056V5.976H85.572V2.016ZM100.296 17.676V16.056H90.324V17.676H100.296ZM100.296 13.032V11.412H90.324V13.032H100.296Z" fill="#252525"/>
<path d="M136.188 33.12C135.036 30.504 134.124 27.864 133.452 25.2C132.78 22.536 132.252 19.632 131.868 16.488L131.04 9.72H108.36V5.076H130.464L129.852 0H134.64L135.252 5.076H141.12V9.72H135.828L136.656 16.488C137.04 19.536 137.604 22.404 138.348 25.092C139.092 27.756 140.112 30.432 141.408 33.12H136.188ZM108.504 27.288L117.54 26.856V17.676H110.592V13.14H128.556V17.676H122.148V26.64L131.004 26.208V30.852L108.504 31.932V27.288ZM139.608 0.252001L140.112 4.176H136.836L136.332 0.252001H139.608Z" fill="#252525"/>
<path d="M155.368 33.12C157.096 30.984 158.392 28.788 159.256 26.532C160.12 24.276 160.672 21.888 160.912 19.368H153.604V14.724H161.056V6.084H155.836V1.404H183.988V6.084H179.236V14.724H186.22V19.368H179.236V33.12H174.556V19.368H165.628C165.46 22.008 165.04 24.42 164.368 26.604C163.696 28.764 162.688 30.936 161.344 33.12H155.368ZM174.556 14.724V6.084H165.736V14.724H174.556Z" fill="#252525"/>
<path d="M198.388 28.116C197.524 29.844 196.6 31.512 195.616 33.12H189.928C191.992 30.144 193.576 27.564 194.68 25.38L189.82 21.744L191.62 9.468H189.712V4.788H192.304L192.916 0.720001H197.884L197.344 4.788H202.744C202.744 9.06 202.576 12.624 202.24 15.48C201.904 18.336 201.232 21.108 200.224 23.796L202.6 25.632V31.284L198.388 28.116ZM196.516 20.952C197.548 17.76 198.172 13.932 198.388 9.468H196.012L194.608 19.476L196.516 20.952ZM203.284 10.656H205.228L209.512 0.576001H214.552L210.268 10.656H216.424L215.164 6.696H219.952L222.652 15.12H203.284V10.656ZM204.328 17.748H221.32V32.832H204.328V17.748ZM217.144 28.512V22.068H208.504V28.512H217.144Z" fill="#252525"/>
<path d="M226.036 2.196H239.536V0H244.288V2.196H257.788V10.044H253.108V6.732H230.716V10.044H226.036V2.196ZM225.712 19.8H244.18V8.136H248.788V19.8H258.112V24.336H248.932L257.896 28.44V33.156L246.412 27.9C240.556 30.204 233.92 32.016 226.504 33.336V28.476C231.736 27.684 237.364 26.304 243.388 24.336H225.712V19.8ZM227.8 12.852L237.988 15.588V19.584L227.8 16.848V12.852ZM232.696 8.28L242.884 11.016V15.048L232.696 12.276V8.28Z" fill="#252525"/>
<path d="M265.852 28.908H269.74V18.72H261.82L263.296 5.544H261.712V1.08H273.628L272.44 14.436H274.06V33.12H265.852V28.908ZM261.352 22.536L268.696 21.456V25.884L261.352 26.964V22.536ZM268.408 14.436L269.236 5.544H267.076L266.176 14.436H268.408ZM274.384 8.388C276.856 6.492 278.74 3.936 280.036 0.720001H288.82C290.116 3.936 292 6.492 294.472 8.388V13.932C292.816 12.9 291.388 11.784 290.188 10.584V13.968H278.668V10.584C277.468 11.784 276.04 12.9 274.384 13.932V8.388ZM275.14 28.296H287.236L288.568 16.272H292.6L291.268 28.296H294.076V32.832H275.14V28.296ZM279.64 16.272L280.72 26.352H276.688L275.608 16.272H279.64ZM289.216 9.576C288.016 8.184 287.02 6.732 286.228 5.22H282.628C281.836 6.732 280.84 8.184 279.64 9.576H289.216ZM285.544 16.272L286.624 26.352H282.592L281.512 16.272H285.544Z" fill="#252525"/>
</svg>
