<svg preserveAspectRatio="none" width="100%" height="100%" overflow="visible" style="display: block;" viewBox="0 0 534.66 55.8" fill="none" xmlns="http://www.w3.org/2000/svg">
<g id="part-title">
<g id="title-main">
<path d="M54.18 55.8C47.1 53.56 41.4 50.68 37.08 47.16C32.8 43.6 29.48 39.18 27.12 33.9C24.72 39.18 21.36 43.6 17.04 47.16C12.76 50.68 7.08 53.56 0 55.8V47.22C4.32 45.46 7.9 43.54 10.74 41.46C13.62 39.38 16.04 36.8 18 33.72C20 30.64 21.7 26.76 23.1 22.08H0.0599999V14.28H23.16L23.1 0.599999H31.02V14.28H54.06V22.08H31.08C32.48 26.76 34.16 30.64 36.12 33.72C38.12 36.8 40.54 39.38 43.38 41.46C46.26 43.54 49.86 45.46 54.18 47.22V55.8Z" fill="var(--fill-0, black)"/>
<path d="M83.34 15.42H90.36L89.7 13.62H96.18L98.94 21.12L101.76 13.62H107.76L107.1 15.42H113.94V54.12H83.34V15.42ZM58.86 55.2C59.86 51.2 60.56 47.18 60.96 43.14C61.36 39.1 61.56 34.66 61.56 29.82V1.92H80.46V55.2H73.2V40.08H68.52C68.24 44.8 67.58 49.84 66.54 55.2H58.86ZM73.2 32.7V24.84H68.82V32.7H73.2ZM73.2 17.46V9.6H68.82V17.46H73.2ZM82.62 3.78H94.8V0.3H102.48V3.78H114.66V11.28H82.62V3.78ZM106.44 46.56V43.5H102L98.58 34.2L95.16 43.5H90.84V46.56H106.44ZM94.92 27.72L90.84 16.68V38.64L94.92 27.72ZM106.44 39V17.1L102.3 27.96L106.44 39Z" fill="var(--fill-0, black)"/>
<path d="M145.26 54.6C141.62 54.6 138.56 54.38 136.08 53.94C133.64 53.54 131.44 52.84 129.48 51.84C129 53.6 128.68 54.72 128.52 55.2H120.24C122.12 49.96 123.5 45.1 124.38 40.62C125.26 36.14 125.8 31.3 126 26.1H118.86V18.3H133.8C133.8 23.46 133.62 28.1 133.26 32.22C132.9 36.3 132.28 40.38 131.4 44.46C133.16 45.46 135.12 46.18 137.28 46.62C139.48 47.02 142.14 47.22 145.26 47.22H174.66V54.6H145.26ZM129.42 1.2L133.56 14.22H125.46L121.32 1.2H129.42ZM136.68 12.96H145.32L143.4 9.06H151.38L153.3 12.96H157.38L159.78 8.04H136.68V1.2H171.42L165.6 12.96H172.86V45.42H165.18V39.54H158.34V45.42H151.14V39.54H144.36V45.42H136.68V12.96ZM151.14 33.24V29.58H144.36V33.24H151.14ZM151.14 23.28V19.62H144.36V23.28H151.14ZM165.18 33.24V29.58H158.34V33.24H165.18ZM165.18 23.28V19.62H158.34V23.28H165.18Z" fill="var(--fill-0, black)"/>
<path d="M178.86 46.56L180.66 46.32V27.06H186.84V45.48L189.66 45.06V23.34H181.26V1.68H200.94V23.34H196.74V29.04H200.4V36.36H196.74V44.1L201.24 43.5V50.94L178.86 54V46.56ZM194.1 16.2V8.82H188.1V16.2H194.1ZM201.96 23.88C206.04 22.72 209.5 21.34 212.34 19.74C210.74 17.98 209.34 16.04 208.14 13.92C206.42 15.08 204.56 15.94 202.56 16.5V9C205.8 7.24 208.18 4.78 209.7 1.62H232.2C231.6 8.66 229 14.7 224.4 19.74C227.4 21.38 230.88 22.76 234.84 23.88V31.86C228.48 30.42 223 28.12 218.4 24.96C213.8 28.12 208.32 30.42 201.96 31.86V23.88ZM204.54 31.56H232.2V54.78H204.54V31.56ZM224.52 47.16V39.18H212.22V47.16H224.52ZM214.32 9C215.28 11.2 216.64 13.24 218.4 15.12C220.04 13.36 221.4 11.32 222.48 9H214.32Z" fill="var(--fill-0, black)"/>
<path d="M285.42 28.26H276.78C276.22 30.5 275.54 32.6 274.74 34.56H265.92C267.72 31.44 268.96 28.4 269.64 25.44C270.32 22.44 270.66 19.02 270.66 15.18V1.5H292.98V34.86H285.42V28.26ZM239.76 47.76H263.1V44.34H242.34V37.32H263.1V35.22H271.02V37.32H291.78V44.34H271.02V47.76H294.36V54.78H239.76V47.76ZM239.88 3.12H244.02L242.88 0.24H249.9L251.04 3.12H257.4L258.54 0.24H265.56L264.42 3.12H268.56V10.08H257.7V20.04H260.7V11.76H267.54V27H257.22C256.7 29.64 255.58 32.26 253.86 34.86H244.56C247.12 32.3 248.76 29.68 249.48 27H240.9V11.76H247.74V20.04H250.74V10.08H239.88V3.12ZM285.42 21.84V18.18H278.1C278.02 19.78 277.94 21 277.86 21.84H285.42ZM285.42 11.76V8.1H278.16V11.76H285.42Z" fill="var(--fill-0, black)"/>
<path d="M354.66 47.4V54.6H325.26C321.62 54.6 318.56 54.38 316.08 53.94C313.64 53.54 311.44 52.84 309.48 51.84C309 53.6 308.68 54.72 308.52 55.2H300.18C302.06 49.96 303.44 45.1 304.32 40.62C305.2 36.14 305.74 31.3 305.94 26.1H298.86V18.3H313.8C313.8 23.54 313.62 28.22 313.26 32.34C312.9 36.42 312.26 40.52 311.34 44.64C313.14 45.64 315.12 46.36 317.28 46.8C319.48 47.2 322.14 47.4 325.26 47.4H354.66ZM309.42 1.2L313.56 14.22H305.46L301.32 1.2H309.42ZM315.3 18.12H330.84V12.24H324.48C324.04 13.8 323.56 15.28 323.04 16.68H315.36C317.52 11.44 318.82 6.28 319.26 1.2H326.28C326.12 3.2 325.96 4.68 325.8 5.64H330.84V0.599999H338.58V5.64H351.48V12.24H338.58V18.12H354.06V24.72H315.3V18.12ZM318.12 27H349.86V45.12H318.12V27ZM342.24 38.76V33.36H325.74V38.76H342.24Z" fill="var(--fill-0, black)"/>
<path d="M375.6 47.52H384.36V0.84H392.28V55.32H375.6V47.52ZM359.04 46.08C363.52 34 366.52 21.82 368.04 9.54H376.08C374.56 22.02 371.86 34.2 367.98 46.08H359.04ZM407.4 10.08C410.76 22.48 413.14 34.66 414.54 46.62H406.86C405.42 34.34 402.9 22.16 399.3 10.08H407.4Z" fill="var(--fill-0, black)"/>
<path d="M420.6 3.66H443.1V0H451.02V3.66H473.52V16.74H465.72V11.22H428.4V16.74H420.6V3.66ZM420.06 33H450.84V13.56H458.52V33H474.06V40.56H458.76L473.7 47.4V55.26L454.56 46.5C444.8 50.34 433.74 53.36 421.38 55.56V47.46C430.1 46.14 439.48 43.84 449.52 40.56H420.06V33ZM423.54 21.42L440.52 25.98V32.64L423.54 28.08V21.42ZM431.7 13.8L448.68 18.36V25.08L431.7 20.46V13.8Z" fill="var(--fill-0, black)"/>
<path d="M486.96 48.18H493.44V31.2H480.24L482.7 9.24H480.06V1.8H499.92L497.94 24.06H500.64V55.2H486.96V48.18ZM479.46 37.56L491.7 35.76V43.14L479.46 44.94V37.56ZM491.22 24.06L492.6 9.24H489L487.5 24.06H491.22ZM501.18 13.98C505.3 10.82 508.44 6.56 510.6 1.2H525.24C527.4 6.56 530.54 10.82 534.66 13.98V23.22C531.9 21.5 529.52 19.64 527.52 17.64V23.28H508.32V17.64C506.32 19.64 503.94 21.5 501.18 23.22V13.98ZM502.44 47.16H522.6L524.82 27.12H531.54L529.32 47.16H534V54.72H502.44V47.16ZM509.94 27.12L511.74 43.92H505.02L503.22 27.12H509.94ZM525.9 15.96C523.9 13.64 522.24 11.22 520.92 8.7H514.92C513.6 11.22 511.94 13.64 509.94 15.96H525.9ZM519.78 27.12L521.58 43.92H514.86L513.06 27.12H519.78Z" fill="var(--fill-0, black)"/>
</g>
</g>
</svg>
