<svg preserveAspectRatio="none" width="100%" height="100%" overflow="visible" style="display: block;" viewBox="0 0 589 88" fill="none" xmlns="http://www.w3.org/2000/svg">
<g id="btn-start-experiment" filter="url(#filter0_d_0_50)">
<path d="M0 0H589V73C589 79.6274 583.627 85 577 85H12C5.37259 85 0 79.6274 0 73V0Z" fill="var(--fill-0, white)" shape-rendering="crispEdges"/>
<path d="M588 1V73C588 79.0751 583.075 84 577 84H12C5.92487 84 1 79.0751 1 73V1H588Z" stroke="var(--stroke-0, #252525)" stroke-width="2" shape-rendering="crispEdges"/>
<g id="tool-mode-start">
<path d="M164.22 58.88C165.804 56.72 167.1 54.86 168.108 53.3C169.14 51.716 170.028 50.12 170.772 48.512L168.684 42.68H164.652C166.38 37.736 167.64 32.24 168.432 26.192H173.076C172.932 27.464 172.752 28.736 172.536 30.008H180.312V34.688H178.98C178.356 39.92 177.408 44.312 176.136 47.864L180.672 58.88H175.704L173.4 53.228C172.584 54.812 171.444 56.696 169.98 58.88H164.22ZM150.324 39.62H147.264V35.516H153.276V33.176H148.56V29.072H153.276V26.48H157.812V29.072H159.972V32.672L161.592 28.1H166.2L163.572 35.516H165.156V39.62H155.076L154.428 41.276H163.932L160.548 47.684L166.776 46.568V50.744L159.936 51.968V58.88H151.692V54.812H155.4V52.076L147.624 53.48V49.304L155.796 47.828L157.2 45.344H152.844L152.016 47.468H147.264L150.324 39.62ZM158.964 35.516L159.792 33.176H157.812V35.516H158.964ZM173.184 42.572C173.88 40.1 174.396 37.472 174.732 34.688H171.708L171.276 36.668L173.184 42.572Z" fill="var(--fill-0, #252525)"/>
<path d="M184.704 54.848C188.52 54.44 192.792 53.54 197.52 52.148H183.012V48.044H186.864V26.768H212.784V48.044H216.636V52.148H202.128C206.856 53.54 211.128 54.44 214.944 54.848V59.24C210.168 58.64 205.812 57.728 201.876 56.504V52.148H197.772V56.504C193.836 57.728 189.48 58.64 184.704 59.24V54.848ZM208.104 48.044V46.496H191.544V48.044H208.104ZM208.104 42.824V41.276H191.544V42.824H208.104ZM208.104 37.64V36.056H191.544V37.64H208.104ZM208.104 32.42V30.836H191.544V32.42H208.104Z" fill="var(--fill-0, #252525)"/>
<path d="M251.484 46.64H244.896V48.008H252.456V51.86H245.508C246.612 52.604 247.74 53.24 248.892 53.768C250.044 54.272 251.328 54.716 252.744 55.1V59.24C250.44 58.544 248.508 57.86 246.948 57.188C245.388 56.54 243.876 55.628 242.412 54.452C240.876 55.676 239.304 56.624 237.696 57.296C236.088 57.992 234.216 58.64 232.08 59.24V55.1C233.496 54.716 234.768 54.272 235.896 53.768C237.048 53.24 238.176 52.604 239.28 51.86H232.368V48.008H240.216V46.64H233.664V33.932H251.484V46.64ZM219.012 57.008C219.54 54.392 219.876 51.656 220.02 48.8C220.164 45.944 220.236 42.464 220.236 38.36V36.128H223.692L223.728 43.22C223.728 45.884 223.656 48.332 223.512 50.564C223.368 52.772 223.104 54.92 222.72 57.008H219.012ZM219.66 30.188H224.448V26.3H229.02V30.188H232.368V34.652H229.092V38.576L231.648 40.808V46.244L229.092 44.012V58.88H224.664V34.652H219.66V30.188ZM232.836 27.776H235.32V26.3H239.568V27.776H245.544V26.3H249.792V27.776H252.276V31.736H249.792V33.356H245.544V31.736H239.568V33.356H235.32V31.736H232.836V27.776ZM247.56 43.436V41.816H237.588V43.436H247.56ZM247.56 38.792V37.172H237.588V38.792H247.56Z" fill="var(--fill-0, #252525)"/>
<path d="M283.452 58.88C282.3 56.264 281.388 53.624 280.716 50.96C280.044 48.296 279.516 45.392 279.132 42.248L278.304 35.48H255.624V30.836H277.728L277.116 25.76H281.904L282.516 30.836H288.384V35.48H283.092L283.92 42.248C284.304 45.296 284.868 48.164 285.612 50.852C286.356 53.516 287.376 56.192 288.672 58.88H283.452ZM255.768 53.048L264.804 52.616V43.436H257.856V38.9H275.82V43.436H269.412V52.4L278.268 51.968V56.612L255.768 57.692V53.048ZM286.872 26.012L287.376 29.936H284.1L283.596 26.012H286.872Z" fill="var(--fill-0, #252525)"/>
<path d="M302.632 58.88C304.36 56.744 305.656 54.548 306.52 52.292C307.384 50.036 307.936 47.648 308.176 45.128H300.868V40.484H308.32V31.844H303.1V27.164H331.252V31.844H326.5V40.484H333.484V45.128H326.5V58.88H321.82V45.128H312.892C312.724 47.768 312.304 50.18 311.632 52.364C310.96 54.524 309.952 56.696 308.608 58.88H302.632ZM321.82 40.484V31.844H313V40.484H321.82Z" fill="var(--fill-0, #252525)"/>
<path d="M345.652 53.876C344.788 55.604 343.864 57.272 342.88 58.88H337.192C339.256 55.904 340.84 53.324 341.944 51.14L337.084 47.504L338.884 35.228H336.976V30.548H339.568L340.18 26.48H345.148L344.608 30.548H350.008C350.008 34.82 349.84 38.384 349.504 41.24C349.168 44.096 348.496 46.868 347.488 49.556L349.864 51.392V57.044L345.652 53.876ZM343.78 46.712C344.812 43.52 345.436 39.692 345.652 35.228H343.276L341.872 45.236L343.78 46.712ZM350.548 36.416H352.492L356.776 26.336H361.816L357.532 36.416H363.688L362.428 32.456H367.216L369.916 40.88H350.548V36.416ZM351.592 43.508H368.584V58.592H351.592V43.508ZM364.408 54.272V47.828H355.768V54.272H364.408Z" fill="var(--fill-0, #252525)"/>
<path d="M373.3 27.956H386.8V25.76H391.552V27.956H405.052V35.804H400.372V32.492H377.98V35.804H373.3V27.956ZM372.976 45.56H391.444V33.896H396.052V45.56H405.376V50.096H396.196L405.16 54.2V58.916L393.676 53.66C387.82 55.964 381.184 57.776 373.768 59.096V54.236C379 53.444 384.628 52.064 390.652 50.096H372.976V45.56ZM375.064 38.612L385.252 41.348V45.344L375.064 42.608V38.612ZM379.96 34.04L390.148 36.776V40.808L379.96 38.036V34.04Z" fill="var(--fill-0, #252525)"/>
<path d="M413.116 54.668H417.004V44.48H409.084L410.56 31.304H408.976V26.84H420.892L419.704 40.196H421.324V58.88H413.116V54.668ZM408.616 48.296L415.96 47.216V51.644L408.616 52.724V48.296ZM415.672 40.196L416.5 31.304H414.34L413.44 40.196H415.672ZM421.648 34.148C424.12 32.252 426.004 29.696 427.3 26.48H436.084C437.38 29.696 439.264 32.252 441.736 34.148V39.692C440.08 38.66 438.652 37.544 437.452 36.344V39.728H425.932V36.344C424.732 37.544 423.304 38.66 421.648 39.692V34.148ZM422.404 54.056H434.5L435.832 42.032H439.864L438.532 54.056H441.34V58.592H422.404V54.056ZM426.904 42.032L427.984 52.112H423.952L422.872 42.032H426.904ZM436.48 35.336C435.28 33.944 434.284 32.492 433.492 30.98H429.892C429.1 32.492 428.104 33.944 426.904 35.336H436.48ZM432.808 42.032L433.888 52.112H429.856L428.776 42.032H432.808Z" fill="var(--fill-0, #252525)"/>
</g>
</g>
<defs>
<filter id="filter0_d_0_50" x="0" y="0" width="589" height="88" filterUnits="userSpaceOnUse" color-interpolation-filters="sRGB">
<feFlood flood-opacity="0" result="BackgroundImageFix"/>
<feColorMatrix in="SourceAlpha" type="matrix" values="0 0 0 0 0 0 0 0 0 0 0 0 0 0 0 0 0 0 127 0" result="hardAlpha"/>
<feOffset dy="3"/>
<feComposite in2="hardAlpha" operator="out"/>
<feColorMatrix type="matrix" values="0 0 0 0 0 0 0 0 0 0 0 0 0 0 0 0 0 0 1 0"/>
<feBlend mode="normal" in2="BackgroundImageFix" result="effect1_dropShadow_0_50"/>
<feBlend mode="normal" in="SourceGraphic" in2="effect1_dropShadow_0_50" result="shape"/>
</filter>
</defs>
</svg>
